<?xml version="1.0" encoding="utf-8"?>
<!-- Generator: Adobe Illustrator 24.2.3, SVG Export Plug-In . SVG Version: 6.00 Build 0)  -->
<svg version="1.1" id="Layer_1" xmlns="http://www.w3.org/2000/svg" xmlns:xlink="http://www.w3.org/1999/xlink" x="0px" y="0px"
	 viewBox="0 0 397 357" style="enable-background:new 0 0 397 357;" xml:space="preserve">
<style type="text/css">
	.st0{fill:#FFFFFF;}
	.st1{fill:#FCF114;}
	.st2{fill:none;stroke:#E4EDEF;}
	.st3{enable-background:new    ;}
	.st4{fill:#1A1A1A;}
</style>
<g id="Group_1582" transform="translate(-901 -8064)">
	<g transform="matrix(1, 0, 0, 1, 901, 8064)">
		<rect id="Rectangle_4181-2" x="12" y="8" class="st0" width="373" height="333"/>
	</g>
	<path id="Rectangle_4182" class="st1" d="M972.5,8114h118c11.9,0,21.5,9.6,21.5,21.5l0,0c0,11.9-9.6,21.5-21.5,21.5h-118
		c-11.9,0-21.5-9.6-21.5-21.5l0,0C951,8123.6,960.6,8114,972.5,8114z"/>
	<path id="Rectangle_4183" class="st1" d="M972.5,8328h118c11.9,0,21.5,9.6,21.5,21.5l0,0c0,11.9-9.6,21.5-21.5,21.5h-118
		c-11.9,0-21.5-9.6-21.5-21.5l0,0C951,8337.6,960.6,8328,972.5,8328z"/>
	<path id="Rectangle_4187" class="st1" d="M1123.5,8221h107c11.9,0,21.5,9.6,21.5,21.5l0,0c0,11.9-9.6,21.5-21.5,21.5h-107
		c-11.9,0-21.5-9.6-21.5-21.5l0,0C1102,8230.6,1111.6,8221,1123.5,8221z"/>
	<circle id="Ellipse_292" class="st0" cx="972" cy="8136" r="15"/>
	<circle id="Ellipse_293" class="st0" cx="972" cy="8350" r="15"/>
	<circle id="Ellipse_294" class="st0" cx="1124" cy="8243" r="15"/>
	<line id="Line_251" class="st2" x1="972.5" y1="8171.5" x2="972.5" y2="8243.5"/>
	<line id="Line_258" class="st2" x1="1182.5" y1="8278.5" x2="1182.5" y2="8350.5"/>
	<line id="Line_257" class="st2" x1="972.5" y1="8243.5" x2="1088.5" y2="8243.5"/>
	<line id="Line_259" class="st2" x1="1124.5" y1="8350.5" x2="1182.5" y2="8350.5"/>
	<g class="st3">
		<path class="st4" d="M970.7,8140v-5.5c-0.6,0.4-1.4,0.6-2.5,0.8v-2.2c0.6-0.1,1.1-0.3,1.7-0.5c0.6-0.3,1.1-0.6,1.5-0.9h2.2v8.4
			H970.7z"/>
	</g>
	<g class="st3">
		<path class="st4" d="M969,8351.1c0.8,0.7,1.7,1.1,2.7,1.1c0.3,0,0.6,0,0.9-0.1c0.3,0,0.5-0.1,0.7-0.3s0.3-0.3,0.3-0.5
			c0-0.2,0-0.3-0.1-0.4c-0.1-0.1-0.2-0.2-0.4-0.2c-0.2,0-0.4-0.1-0.6-0.1c-0.2,0-0.4,0-0.7,0h-1.4v-1.8h1.4c1.1,0,1.6-0.2,1.6-0.7
			c0-0.5-0.5-0.7-1.6-0.7c-1,0-1.9,0.4-2.6,1.1l-1.8-1.3c0.5-0.6,1.1-1,1.9-1.4c0.8-0.3,1.7-0.5,2.7-0.5c0.8,0,1.5,0.1,2.2,0.2
			c0.6,0.2,1.2,0.4,1.6,0.8c0.4,0.4,0.7,0.8,0.7,1.4c0,0.5-0.2,0.9-0.5,1.3c-0.3,0.4-0.8,0.6-1.4,0.7c0.7,0.1,1.2,0.3,1.6,0.7
			c0.4,0.3,0.6,0.8,0.6,1.3c0,0.6-0.2,1-0.6,1.4s-1,0.7-1.7,0.9c-0.7,0.2-1.5,0.3-2.4,0.3c-1,0-1.9-0.2-2.7-0.5
			c-0.8-0.3-1.5-0.8-2-1.4L969,8351.1z"/>
	</g>
	<g class="st3">
		<path class="st4" d="M1119.5,8240.1c0.5-0.5,1.1-1,2-1.3s1.7-0.5,2.7-0.5c0.5,0,1,0.1,1.5,0.2c0.5,0.1,0.9,0.3,1.4,0.5
			s0.8,0.5,1,0.8c0.2,0.3,0.4,0.7,0.4,1.2c0,1.3-1,2.2-3.1,2.8c-1.4,0.4-2.3,0.8-2.6,1.1h5.8v2.1h-9.2v-1.2c0.1-0.8,0.5-1.6,1.2-2.3
			s1.7-1.2,2.9-1.5c0.9-0.3,1.4-0.5,1.6-0.6c0.2-0.1,0.3-0.2,0.3-0.4c0-0.2-0.1-0.4-0.4-0.5c-0.3-0.1-0.6-0.2-1-0.2
			c-1.1,0-2.1,0.4-3,1.3L1119.5,8240.1z"/>
	</g>
	<g class="st3">
		<path class="st4" d="M1002.1,8138.2h5.3v1.8h-7.7v-7h7.6v1.8h-5.2v0.9h4.2v1.6h-4.2V8138.2z"/>
		<path class="st4" d="M1015.9,8133v1.8h-2.8v5.2h-2.4v-5.2h-2.8v-1.8H1015.9z"/>
		<path class="st4" d="M1022.1,8140l-0.6-1.2h-3.5l-0.6,1.2h-2.5l3.6-7h2.6l3.5,7H1022.1z M1018.7,8137.2h2l-1-2.2L1018.7,8137.2z"
			/>
		<path class="st4" d="M1030.2,8133c1,0,1.9,0.2,2.5,0.6c0.6,0.4,0.9,1.1,0.9,1.9c0,0.8-0.3,1.5-0.9,1.9c-0.6,0.4-1.4,0.6-2.5,0.6
			h-2.5v2h-2.4v-7H1030.2z M1030,8136.4c0.7,0,1.1-0.3,1.1-0.8c0-0.6-0.4-0.8-1.1-0.8h-2.3v1.7H1030z"/>
	</g>
	<g class="st3">
		<path class="st4" d="M1002.1,8352.2h5.3v1.8h-7.7v-7h7.6v1.8h-5.2v0.9h4.2v1.6h-4.2V8352.2z"/>
		<path class="st4" d="M1015.9,8347v1.8h-2.8v5.2h-2.4v-5.2h-2.8v-1.8H1015.9z"/>
		<path class="st4" d="M1022.1,8354l-0.6-1.2h-3.5l-0.6,1.2h-2.5l3.6-7h2.6l3.5,7H1022.1z M1018.7,8351.2h2l-1-2.2L1018.7,8351.2z"
			/>
		<path class="st4" d="M1030.2,8347c1,0,1.9,0.2,2.5,0.6c0.6,0.4,0.9,1.1,0.9,1.9c0,0.8-0.3,1.5-0.9,1.9c-0.6,0.4-1.4,0.6-2.5,0.6
			h-2.5v2h-2.4v-7H1030.2z M1030,8350.4c0.7,0,1.1-0.3,1.1-0.8c0-0.6-0.4-0.8-1.1-0.8h-2.3v1.7H1030z"/>
	</g>
	<g class="st3">
		<path class="st4" d="M1155.1,8245.2h5.3v1.8h-7.7v-7h7.6v1.8h-5.2v0.9h4.2v1.6h-4.2V8245.2z"/>
		<path class="st4" d="M1168.9,8240v1.8h-2.8v5.2h-2.4v-5.2h-2.8v-1.8H1168.9z"/>
		<path class="st4" d="M1175.1,8247l-0.6-1.2h-3.5l-0.6,1.2h-2.5l3.5-7h2.7l3.5,7H1175.1z M1171.7,8244.2h2l-1-2.2L1171.7,8244.2z"
			/>
		<path class="st4" d="M1183.2,8240c1,0,1.8,0.2,2.4,0.6c0.6,0.4,0.9,1.1,0.9,1.9c0,0.8-0.3,1.5-0.9,1.9c-0.6,0.4-1.4,0.6-2.4,0.6
			h-2.5v2h-2.4v-7H1183.2z M1183,8243.4c0.7,0,1.1-0.3,1.1-0.8c0-0.6-0.4-0.8-1.1-0.8h-2.3v1.7H1183z"/>
	</g>
</g>
</svg>
