<svg version="1.1" id="Layer_1" xmlns="http://www.w3.org/2000/svg" x="0" y="0" viewBox="0 0 373 333" xml:space="preserve" enable-background="new 0 0 373 333"><style>.st1{fill:#fff}.st2{fill:#e4edef}.st4{fill:#1a1a1a}.st5{enable-background:new}</style><filter filterUnits="userSpaceOnUse" height="357" id="Rectangle_4173" width="397" x="0" y="0"><feOffset dy="4"/><feGaussianBlur result="blur" stdDeviation="4"/><feFlood flood-color="#dbe3e6"/><feComposite in2="blur" operator="in"/><feComposite in="SourceGraphic"/></filter><g id="Group_1581" transform="translate(-901 -7652)"><g transform="translate(901 7652)" filter="url(#Rectangle_4173)"><path id="Rectangle_4173-2_1_" class="st1" d="M0 0h373v333H0z"/></g><path id="Rectangle_4167" class="st2" d="M948 7819h285c2.2 0 4 1.8 4 4s-1.8 4-4 4H948c-2.2 0-4-1.8-4-4s1.8-4 4-4z"/><path id="Rectangle_4168" class="st2" d="M948 7836h272c2.2 0 4 1.8 4 4s-1.8 4-4 4H948c-2.2 0-4-1.8-4-4s1.8-4 4-4z"/><path id="Rectangle_4169" class="st2" d="M948 7852h264c2.2 0 4 1.8 4 4s-1.8 4-4 4H948c-2.2 0-4-1.8-4-4s1.8-4 4-4z"/><path id="Rectangle_4170" class="st2" d="M948 7870h223c2.2 0 4 1.8 4 4s-1.8 4-4 4H948c-2.2 0-4-1.8-4-4s1.8-4 4-4z"/><g id="Group_1523" transform="translate(97 128)"><path id="Rectangle_4167-2" class="st2" d="M851 7757h285c2.2 0 4 1.8 4 4s-1.8 4-4 4H851c-2.2 0-4-1.8-4-4s1.8-4 4-4z"/><path id="Rectangle_4168-2" class="st2" d="M851 7774h272c2.2 0 4 1.8 4 4s-1.8 4-4 4H851c-2.2 0-4-1.8-4-4s1.8-4 4-4z"/><path id="Rectangle_4169-2" class="st2" d="M851 7790h259c2.2 0 4 1.8 4 4s-1.8 4-4 4H851c-2.2 0-4-1.8-4-4s1.8-4 4-4z"/><path id="Rectangle_4170-2" class="st2" d="M851 7807h155c2.2 0 4 1.8 4 4s-1.8 4-4 4H851c-2.2 0-4-1.8-4-4s1.8-4 4-4z"/></g><g id="Group_1522" transform="translate(103 -400)"><path id="Rectangle_4174" d="M863.5 8118h252c11.9 0 21.5 9.6 21.5 21.5s-9.6 21.5-21.5 21.5h-252c-11.9 0-21.5-9.6-21.5-21.5s9.6-21.5 21.5-21.5z" fill="#fcf114"/><circle id="Ellipse_280" class="st1" cx="863" cy="8140" r="15"/><path id="Polygon_1" class="st4" d="M867.9 8139.1c.5.3.7.9.4 1.4-.1.2-.2.3-.4.4l-6.9 3.8c-.5.3-1.1.1-1.4-.4-.1-.1-.1-.3-.1-.5v-7.6c0-.6.4-1 1-1 .2 0 .3 0 .5.1l6.9 3.8z"/><path id="Rectangle_4175" class="st1" d="M890.5 8137h225c1.4 0 2.5 1.1 2.5 2.5s-1.1 2.5-2.5 2.5h-225c-1.4 0-2.5-1.1-2.5-2.5s1.1-2.5 2.5-2.5z"/></g><g class="st5"><path class="st4" d="M955.4 7691h2.4l-2.5 7h-2.4l-1.4-4.5-1.4 4.5h-2.4l-2.6-7h2.5l1.4 4.5 1.5-4.5h2.2l1.5 4.5 1.2-4.5zm5.5 5.2h5.3v1.8h-7.7v-7h7.6v1.8h-5.2v.9h4.2v1.6h-4.2v.9zm15 1.8h-2.8l-1.7-2.1h-1.6v2.1h-2.4v-7h5c1 0 1.8.2 2.4.6.6.4.9 1 .9 1.8 0 .6-.2 1-.5 1.4-.3.4-.7.7-1.3.8l2 2.4zm-6.1-3.7h2.4c.7 0 1.1-.3 1.1-.8s-.4-.8-1.1-.8h-2.4v1.6zm10.9-.9c.6.1 1.2.1 1.6.2.4.1.9.2 1.2.4.4.2.7.4.9.7.2.3.3.6.3 1 0 .8-.3 1.4-1 1.8-.7.4-1.7.7-2.9.7-1.8 0-3.4-.4-4.5-1.3l1.2-1.4c.9.7 2 1 3.4 1 1 0 1.5-.2 1.5-.5 0-.2-.1-.3-.4-.4-.2-.1-.7-.1-1.3-.2-.6-.1-1.1-.1-1.6-.2-.4-.1-.9-.2-1.3-.4s-.7-.4-.9-.7c-.2-.3-.3-.6-.3-1 0-.7.4-1.3 1.1-1.7.7-.4 1.7-.6 2.8-.6 1.6 0 2.9.3 3.9 1l-1.2 1.4c-.7-.5-1.7-.7-2.8-.7-1 0-1.5.2-1.5.5 0 .2.1.3.4.3.3 0 .7.1 1.4.1zm5.7 2.1c.2.3.5.5.7.6.3.1.6.2.9.2 1 0 1.5-.5 1.5-1.6v-3.7h2.4v3.9c0 1-.3 1.8-1 2.5-.7.6-1.6.9-2.9.9-1.4 0-2.5-.4-3.2-1.3l1.6-1.5zm12.8 2.5l-.6-1.2h-3.5l-.6 1.2H992l3.6-7h2.6l3.5 7h-2.5zm-3.3-2.8h2l-1-2.2-1 2.2zm14.7 2.8l-.6-1.2h-3.5l-.6 1.2h-2.5l3.6-7h2.6l3.5 7h-2.5zm-3.4-2.8h2l-1-2.2-1 2.2zm11.9-4.2h2.4v3.7c0 1.1-.4 2-1.1 2.6s-1.8.9-3.1.9-2.4-.3-3.1-.9c-.7-.6-1.1-1.5-1.1-2.6v-3.7h2.4v3.5c0 .5.1 1 .4 1.3s.7.5 1.3.5 1-.2 1.3-.5c.3-.3.4-.8.4-1.3v-3.5zm7.9 0c1.4 0 2.5.3 3.3.9.8.6 1.2 1.5 1.2 2.6s-.4 2-1.2 2.6c-.8.6-1.9.9-3.3.9h-4.1v-7h4.1zm-.2 5.1c.7 0 1.2-.1 1.6-.4s.6-.7.6-1.2-.2-.9-.6-1.2-.9-.4-1.6-.4h-1.4v3.3h1.4zm8.1 1.9h-2.4v-7h2.4v7zm5.8.2c-1.4 0-2.6-.3-3.4-1s-1.3-1.6-1.3-2.8.4-2.1 1.3-2.8 2-1 3.4-1 2.6.3 3.4 1 1.3 1.6 1.3 2.8-.4 2.1-1.3 2.8-2 1-3.4 1zm-1.6-2.4c.4.3.9.5 1.6.5s1.2-.2 1.6-.5.6-.8.6-1.3-.2-1-.6-1.3-.9-.5-1.6-.5-1.2.2-1.6.5-.6.8-.6 1.3.2 1 .6 1.3z"/></g><g class="st5"><path class="st4" d="M955.4 7793h2.4l-2.5 7h-2.4l-1.4-4.5-1.4 4.5h-2.4l-2.6-7h2.5l1.4 4.5 1.5-4.5h2.2l1.5 4.5 1.2-4.5zm5.5 5.2h5.3v1.8h-7.7v-7h7.6v1.8h-5.2v.9h4.2v1.6h-4.2v.9zm15 1.8h-2.8l-1.7-2.1h-1.6v2.1h-2.4v-7h5c1 0 1.8.2 2.4.6.6.4.9 1 .9 1.8 0 .6-.2 1-.5 1.4-.3.4-.7.7-1.3.8l2 2.4zm-6.1-3.7h2.4c.7 0 1.1-.3 1.1-.8s-.4-.8-1.1-.8h-2.4v1.6zm10.9-.9c.6.1 1.2.1 1.6.2.4.1.9.2 1.2.4.4.2.7.4.9.7.2.3.3.6.3 1 0 .8-.3 1.4-1 1.8-.7.4-1.7.7-2.9.7-1.8 0-3.4-.4-4.5-1.3l1.2-1.4c.9.7 2 1 3.4 1 1 0 1.5-.2 1.5-.5 0-.2-.1-.3-.4-.4-.2-.1-.7-.1-1.3-.2-.6-.1-1.1-.1-1.6-.2-.4-.1-.9-.2-1.3-.4s-.7-.4-.9-.7c-.2-.3-.3-.6-.3-1 0-.7.4-1.3 1.1-1.7.7-.4 1.7-.6 2.8-.6 1.6 0 2.9.3 3.9 1l-1.2 1.4c-.7-.5-1.7-.7-2.8-.7-1 0-1.5.2-1.5.5 0 .2.1.3.4.3.3 0 .7.1 1.4.1zm5.7 2.1c.2.3.5.5.7.6.3.1.6.2.9.2 1 0 1.5-.5 1.5-1.6v-3.7h2.4v3.9c0 1-.3 1.8-1 2.5-.7.6-1.6.9-2.9.9-1.4 0-2.5-.4-3.2-1.3l1.6-1.5zm12.8 2.5l-.6-1.2h-3.5l-.6 1.2H992l3.6-7h2.6l3.5 7h-2.5zm-3.3-2.8h2l-1-2.2-1 2.2zm15.8-4.2v1.8h-2.8v5.2h-2.4v-5.2h-2.8v-1.8h8zm3.2 5.2h5.3v1.8h-7.7v-7h7.6v1.8h-5.2v.9h4.2v1.6h-4.2v.9zm15 1.8h-2.8l-2-2.7-1.3 1.2v1.5h-2.4v-7h2.4v3l3-3h2.9l-3 2.8 3.2 4.2z"/><path class="st4" d="M1034.1 7795.4c.6.1 1.2.1 1.6.2.4.1.9.2 1.2.4.4.2.7.4.9.7.2.3.3.6.3 1 0 .8-.3 1.4-1 1.8-.7.4-1.7.7-2.9.7-1.8 0-3.4-.4-4.5-1.3l1.2-1.4c.9.7 2 1 3.4 1 1 0 1.5-.2 1.5-.5 0-.2-.1-.3-.4-.4-.2-.1-.7-.1-1.3-.2-.6-.1-1.1-.1-1.6-.2-.4-.1-.9-.2-1.3-.4s-.7-.4-.9-.7c-.2-.3-.3-.6-.3-1 0-.7.4-1.3 1.1-1.7.7-.4 1.7-.6 2.8-.6 1.6 0 2.9.3 3.9 1l-1.2 1.4c-.7-.5-1.7-.7-2.8-.7-1 0-1.5.2-1.5.5 0 .2.1.3.4.3.3 0 .8.1 1.4.1zm12.3-2.4v1.8h-2.8v5.2h-2.4v-5.2h-2.8v-1.8h8zm4.9 7.2c-1.4 0-2.6-.3-3.4-1s-1.3-1.6-1.3-2.8.4-2.1 1.3-2.8 2-1 3.4-1 2.6.3 3.4 1 1.3 1.6 1.3 2.8-.4 2.1-1.3 2.8-1.9 1-3.4 1zm-1.6-2.4c.4.3.9.5 1.6.5s1.2-.2 1.6-.5.6-.8.6-1.3-.2-1-.6-1.3-.9-.5-1.6-.5-1.2.2-1.6.5-.6.8-.6 1.3.2 1 .6 1.3zm16.7-4.8h2.4l-2.5 7h-2.4l-1.4-4.5-1.4 4.5h-2.4l-2.6-7h2.5l1.4 4.5 1.5-4.5h2.2l1.5 4.5 1.2-4.5zm8.9 7l-.6-1.2h-3.5l-.6 1.2h-2.5l3.6-7h2.6l3.5 7h-2.5zm-3.4-2.8h2l-1-2.2-1 2.2z"/></g></g></svg>