<svg version="1.1" id="Layer_1" xmlns="http://www.w3.org/2000/svg" x="0" y="0" viewBox="0 0 373 333" xml:space="preserve"><style>.st2{enable-background:new}.st3{fill:#c4c4c4}.st5{fill:#1a1a1a}.st6{fill:#c6d5d8}</style><g id="Group_1583" transform="translate(-901 -8469)"><g transform="translate(901 8469)"><path id="Rectangle_4180-2" fill="#fff" d="M0 0h373v333H0z"/></g><path id="Line_249" fill="none" stroke="#e4edef" d="M939.5 8555.5h301"/><g class="st2"><path class="st3" d="M985.8 8515.7c.2.3.4.5.7.6s.6.2 1.1.2c.7 0 1.2-.2 1.5-.6.3-.4.5-.9.5-1.6v-3.6h.8v3.7c0 .4-.1.8-.2 1.1-.1.3-.3.6-.5.9-.2.3-.5.5-.9.6-.4.1-.8.2-1.3.2-1.1 0-1.9-.4-2.4-1.1l.7-.4zm13.1 1.3l-.9-1.7h-4.2l-.9 1.7h-.9l3.5-6.3h.8l3.5 6.3h-.9zm-4.8-2.4h3.5l-1.8-3.2-1.7 3.2zm13.7-3.9h.7v6.3h-.7l-5.3-5.3v5.3h-.7v-6.3h.8l5.1 5.2v-5.2zm14.4 6.3h-1l-3-3.4-2.1 1.6v1.7h-.8v-6.3h.8v3.7l4.8-3.7h1.1l-3.1 2.5 3.3 3.9zm7.7-.7c-.7.6-1.6.9-2.8.9-1.2 0-2.1-.3-2.8-.9-.7-.6-1-1.4-1-2.4s.3-1.8 1-2.4c.7-.6 1.6-.9 2.8-.9 1.2 0 2.1.3 2.8.9.7.6 1 1.4 1 2.4.1 1-.3 1.8-1 2.4zm-5-.5c.5.5 1.3.7 2.2.7.9 0 1.7-.2 2.2-.7s.8-1.1.8-1.9-.3-1.5-.8-1.9-1.3-.7-2.2-.7c-.9 0-1.7.2-2.2.7-.5.5-.8 1.1-.8 1.9s.2 1.4.8 1.9zm17.1-5.1h.8l-2.3 6.3h-.8l-2-5.4-2 5.4h-.8l-2.3-6.3h.8l1.9 5.4 2-5.4h.8l2 5.4 1.9-5.4zm8.7 6.3l-.9-1.7h-4.2l-.9 1.7h-.8l3.5-6.3h.8l3.5 6.3h-1zm-4.8-2.4h3.5l-1.8-3.2-1.7 3.2zm8.5 1.7h4.8v.7h-5.6v-6.3h.8v5.6zm9.9-2.9c.5 0 1 .1 1.3.2.4.1.7.2 1 .3.3.1.5.3.7.5.2.2.2.5.2.8 0 .6-.3 1.1-.9 1.5-.6.4-1.4.6-2.4.6-1.5 0-2.7-.4-3.7-1.3l.5-.6c.9.8 1.9 1.2 3.2 1.2.8 0 1.3-.1 1.8-.3.4-.2.6-.5.6-.9 0-.2-.1-.3-.2-.5-.1-.1-.3-.2-.5-.3-.2-.1-.5-.1-.8-.2s-.7-.1-1.1-.1c-.5 0-.9-.1-1.2-.2-.4-.1-.7-.2-1-.3-.3-.1-.6-.3-.8-.5-.2-.2-.3-.5-.3-.8 0-.6.3-1 .9-1.4.6-.3 1.4-.5 2.2-.5.7 0 1.3.1 1.8.3.6.2 1 .5 1.4.8l-.6.5c-.6-.6-1.5-.9-2.6-.9-.3 0-.6 0-.9.1s-.5.1-.8.2c-.2.1-.4.2-.6.4-.1.2-.2.3-.2.5s.1.3.2.5c.1.1.3.2.6.3s.5.1.8.2 1-.1 1.4-.1zm12.5 3.6h-1l-3-3.4-2.1 1.6v1.7h-.8v-6.3h.8v3.7l4.8-3.7h1.1l-3.1 2.5 3.3 3.9zm2.8 0h-.8v-6.3h.8v6.3z"/></g><g class="st2"><path class="st3" d="M1165.6 8511.1c.3-.5.7-.9 1.2-1.2.6-.3 1.2-.5 1.9-.5.8 0 1.5.2 2 .5s.9.8.9 1.4c0 .3-.1.5-.2.7-.1.2-.3.4-.5.6-.2.2-.5.3-.8.4-.3.1-.6.3-1 .4-1.6.6-2.5 1.2-2.7 1.8h5.4v.7h-6.3v-.4c.1-.5.4-1 1-1.5s1.3-.9 2.2-1.2c.3-.1.6-.2.7-.3l.6-.3c.2-.1.4-.2.5-.3l.3-.3c.1-.1.1-.2.1-.4 0-.4-.2-.7-.6-.9s-.9-.3-1.5-.3c-1.1 0-1.9.4-2.5 1.3l-.7-.2zm11.3-1.6c1.1 0 2 .3 2.7.9.6.6 1 1.4 1 2.4s-.3 1.8-1 2.4c-.6.6-1.5.9-2.7.9-1.3 0-2.3-.4-3-1.1l.6-.4c.6.6 1.3.9 2.3.9.9 0 1.6-.2 2.1-.7.5-.5.8-1.1.8-2v-.4c-.3.4-.8.7-1.3.9-.6.2-1.2.3-1.9.3-.8 0-1.4-.2-2-.5-.5-.4-.8-.9-.8-1.5s.3-1.2.9-1.5c.6-.4 1.4-.6 2.3-.6zm-.2 3.6c.6 0 1.1-.1 1.6-.3.5-.2 1-.5 1.3-.9-.2-.5-.5-.9-1-1.2-.5-.3-1-.4-1.7-.4s-1.3.1-1.8.4c-.4.3-.7.6-.7 1.1 0 .5.2.8.6 1.1.5 0 1.1.2 1.7.2zm6.6 2.9c-.1.1-.2.1-.4.1s-.3 0-.4-.1-.2-.2-.2-.4c0-.1.1-.3.2-.4.1-.1.2-.1.4-.1s.3 0 .4.1c.1.1.2.2.2.4 0 .1-.1.3-.2.4zm8.3-.7c-.6.6-1.5.9-2.7.9-1.1 0-2-.3-2.7-.9-.6-.6-1-1.4-1-2.4s.3-1.8 1-2.4c.6-.6 1.5-.9 2.7-.9 1.1 0 2 .3 2.7.9.6.6 1 1.4 1 2.4s-.3 1.8-1 2.4zm-4.8-.5c.5.5 1.2.7 2.1.7.9 0 1.6-.2 2.1-.7s.8-1.1.8-2c0-.9-.3-1.5-.8-2s-1.2-.7-2.1-.7c-.9 0-1.6.2-2.1.7-.5.5-.8 1.1-.8 2 .1.9.3 1.6.8 2zm11.9-2.8c.8 0 1.4.2 2 .5.5.4.8.9.8 1.5s-.3 1.2-.9 1.5c-.6.4-1.4.6-2.3.6-1.1 0-2-.3-2.7-.9-.6-.6-1-1.4-1-2.4s.3-1.8 1-2.4c.6-.6 1.5-.9 2.7-.9 1.3 0 2.3.4 3 1.1l-.6.4c-.6-.6-1.3-.9-2.3-.9-.9 0-1.6.2-2.1.7s-.8 1.1-.8 2v.5c.3-.4.8-.7 1.3-.9.5-.3 1.2-.4 1.9-.4zm-.4 3.5c.7 0 1.3-.1 1.8-.4.4-.3.7-.6.7-1.1 0-.5-.2-.8-.6-1.1-.4-.2-.9-.3-1.6-.3-.6 0-1.1.1-1.6.3-.5.2-1 .5-1.3.9.2.5.5.9 1 1.2.3.4.9.5 1.6.5zm6.1.5c-.1.1-.2.1-.4.1s-.3 0-.4-.1-.2-.2-.2-.4c0-.1.1-.3.2-.4.1-.1.2-.1.4-.1s.3 0 .4.1c.1.1.2.2.2.4 0 .1-.1.3-.2.4zm2.3-4.9c.3-.5.7-.9 1.2-1.2.6-.3 1.2-.5 1.9-.5.8 0 1.5.2 2 .5s.9.8.9 1.4c0 .3-.1.5-.2.7-.1.2-.3.4-.5.6-.2.2-.5.3-.8.4-.3.1-.6.3-1 .4-1.6.6-2.5 1.2-2.7 1.8h5.4v.7h-6.3v-.4c.1-.5.4-1 1-1.5s1.3-.9 2.2-1.2c.3-.1.6-.2.7-.3l.6-.3c.2-.1.4-.2.5-.3l.3-.3c.1-.1.1-.2.1-.4 0-.4-.2-.7-.6-.9-.4-.2-.9-.3-1.5-.3-1.1 0-1.9.4-2.5 1.3l-.7-.2zm14.5 4.2c-.6.6-1.5.9-2.7.9-1.1 0-2-.3-2.7-.9-.6-.6-1-1.4-1-2.4s.3-1.8 1-2.4c.6-.6 1.5-.9 2.7-.9 1.1 0 2 .3 2.7.9.6.6 1 1.4 1 2.4s-.3 1.8-1 2.4zm-4.8-.5c.5.5 1.2.7 2.1.7.9 0 1.6-.2 2.1-.7s.8-1.1.8-2c0-.9-.3-1.5-.8-2s-1.2-.7-2.1-.7c-.9 0-1.6.2-2.1.7-.5.5-.8 1.1-.8 2 .1.9.3 1.6.8 2zm7.9-3.7c.3-.5.7-.9 1.2-1.2.6-.3 1.2-.5 1.9-.5.8 0 1.5.2 2 .5s.9.8.9 1.4c0 .3-.1.5-.2.7-.1.2-.3.4-.5.6-.2.2-.5.3-.8.4-.3.1-.6.3-1 .4-1.6.6-2.5 1.2-2.7 1.8h5.4v.7h-6.3v-.4c.1-.5.4-1 1-1.5s1.3-.9 2.2-1.2c.3-.1.6-.2.7-.3l.6-.3c.2-.1.4-.2.5-.3l.3-.3c.1-.1.1-.2.1-.4 0-.4-.2-.7-.6-.9s-.9-.3-1.5-.3c-1.1 0-1.9.4-2.5 1.3l-.7-.2zm14.5 4.2c-.6.6-1.5.9-2.7.9-1.1 0-2-.3-2.7-.9-.6-.6-1-1.4-1-2.4s.3-1.8 1-2.4c.6-.6 1.5-.9 2.7-.9 1.1 0 2 .3 2.7.9.6.6 1 1.4 1 2.4s-.3 1.8-1 2.4zm-4.8-.5c.5.5 1.2.7 2.1.7.9 0 1.6-.2 2.1-.7.5-.5.8-1.1.8-2 0-.9-.3-1.5-.8-2s-1.2-.7-2.1-.7c-.9 0-1.6.2-2.1.7s-.8 1.1-.8 2c0 .9.3 1.6.8 2z"/></g><circle id="Ellipse_290" cx="954" cy="8513" r="15" fill="#fcf114"/><g class="st2"><path class="st5" d="M946.3 8626.9v.7l-5.7 8.6h5.9v.8h-7.1v-.7l5.7-8.7h-5.5v-.8h6.7zm4.6 2.8c1 0 1.7.3 2.2.8.2-.6.6-.9 1-.9.2 0 .4 0 .6.1v.8c-.5 0-1 0-1.4.2.3.4.5.9.5 1.5 0 .8-.3 1.4-.8 1.9s-1.2.7-2 .7c-.5 0-.9-.1-1.3-.2-.4.3-.5.6-.5.8 0 .2.1.3.2.4.1.1.4.1.8.2l2 .1c.8 0 1.4.2 1.8.5.4.3.5.7.5 1.4 0 .8-.4 1.4-1.2 1.8-.7.3-1.5.4-2.4.4-2.1 0-3.1-.6-3.1-1.8 0-.6.4-1.2 1.2-1.8-.5-.1-.7-.4-.7-.9 0-.2.1-.5.2-.7.1-.2.4-.4.7-.7-.5-.3-.8-.7-1-1.4-.1-.2-.1-.4-.1-.7 0-.8.3-1.4.8-1.9.4-.4 1.1-.6 2-.6zm2.6 8.2c0-.6-.4-.9-1.3-1l-2.5-.1c-.6.4-.9.9-.9 1.4 0 .8.8 1.2 2.3 1.2 1.6 0 2.4-.5 2.4-1.5zm-.6-5.6c0-1.2-.6-1.8-1.9-1.8-.6 0-1.1.2-1.5.5-.4.3-.6.7-.6 1.3s.2 1 .5 1.3c.3.3.8.5 1.5.5.6 0 1.1-.2 1.4-.5.4-.4.6-.8.6-1.3zm5.7 4.9c-2.1 0-3.2-1.2-3.2-3.7 0-1.2.3-2.1.9-2.8.6-.7 1.4-1 2.5-1 1 0 1.8.3 2.3.9.5.6.8 1.5.8 2.6 0 2.7-1.1 4-3.3 4zm.1-.8c1.5 0 2.2-1 2.2-3 0-1-.2-1.7-.5-2.2-.4-.4-.9-.7-1.6-.7-.8 0-1.3.2-1.8.7s-.6 1.2-.6 2.2c-.1 2 .7 3 2.3 3zm9.8-10h.9v10.6h-.8l-.1-.8c-.8.6-1.6 1-2.5 1-1.8 0-2.7-1.2-2.7-3.7 0-1.3.3-2.3.8-2.9.6-.6 1.3-.9 2.2-.9.8 0 1.5.2 2.1.7v-4zm0 8.9v-4.1c-.7-.5-1.4-.7-2.1-.7-1.4 0-2.1 1-2.1 3.1 0 1 .2 1.7.5 2.2.3.5.8.7 1.5.7.4 0 .8-.1 1.2-.3.4-.3.7-.5 1-.9zm9.2-3.1v4.8h-.9v-4.7c0-.6-.1-1-.4-1.3-.2-.3-.6-.4-1.1-.4-.4 0-.9.1-1.3.3-.4.2-.8.4-1.1.7v5.4h-.9v-7.2h.8l.1.9c.9-.7 1.8-1 2.7-1 1.3 0 2.1.8 2.1 2.5zm2.1-4.8c0-.5.3-.7.8-.7s.8.2.8.7-.3.7-.8.7-.8-.2-.8-.7zm.3 2.4h.9v7.2h-.9v-7.2zm6.1 7.4c-.6 0-1.1-.1-1.5-.3-.4-.2-.8-.5-1-.8-.2-.4-.4-.8-.5-1.2-.1-.4-.2-.9-.2-1.4 0-1.2.3-2.2.9-2.8.6-.6 1.4-.9 2.4-.9.9 0 1.6.3 2.1.8s.7 1.3.7 2.2c0 .4 0 .6-.1.9h-5c0 1 .2 1.7.6 2.1.4.4.9.6 1.7.6.5 0 .9-.1 1.2-.3s.5-.6.6-1l.9.2c-.1.7-.5 1.2-.9 1.5-.6.2-1.2.4-1.9.4zm-2.2-4.3h4.1c0-1.6-.6-2.3-1.9-2.3-.6 0-1.1.2-1.6.6-.4.3-.6.9-.6 1.7zm14.9-3.1v.7l-4.3 5.7h4.5v.8h-5.6v-.7l4.3-5.7h-4.2v-.8h5.3zm7.7 7.4c-2.1 0-3.2-1.2-3.2-3.7 0-1.2.3-2.1.9-2.8.6-.7 1.4-1 2.5-1 1 0 1.8.3 2.3.9.5.6.8 1.5.8 2.6 0 2.7-1.1 4-3.3 4zm.1-.8c1.5 0 2.2-1 2.2-3 0-1-.2-1.7-.5-2.2-.4-.4-.9-.7-1.6-.7-.8 0-1.3.2-1.8.7s-.6 1.2-.6 2.2c0 2 .8 3 2.3 3zm6.1 0l-.1.6h-.8v-10.6h.9v4.3c.8-.7 1.6-1 2.5-1 1.7 0 2.6 1.2 2.6 3.5 0 1.3-.3 2.3-.9 3-.6.6-1.3 1-2.2 1-.5 0-1.2-.3-2-.8zm.1-4.9v4c.7.6 1.4.9 2.1.9 1.4 0 2.1-1.1 2.1-3.2 0-1-.1-1.7-.4-2.1-.3-.4-.8-.6-1.4-.6-.4 0-.8.1-1.2.3s-.9.4-1.2.7zm6.9-4.1c0-.5.3-.7.8-.7s.8.2.8.7-.3.7-.8.7-.8-.2-.8-.7zm.2 2.4h.9v7.2h-.9v-7.2zm6.1 7.4c-.6 0-1.1-.1-1.5-.3-.4-.2-.8-.5-1-.8-.2-.4-.4-.8-.5-1.2-.1-.4-.2-.9-.2-1.4 0-1.2.3-2.2.9-2.8.6-.6 1.4-.9 2.4-.9.9 0 1.6.3 2.1.8s.7 1.3.7 2.2c0 .4 0 .6-.1.9h-5c0 1 .2 1.7.6 2.1.4.4.9.6 1.7.6.5 0 .9-.1 1.2-.3s.5-.6.6-1l.9.2c-.1.7-.5 1.2-.9 1.5-.5.2-1.1.4-1.9.4zm-2.2-4.3h4.1c0-1.6-.6-2.3-1.9-2.3-.6 0-1.1.2-1.6.6-.3.3-.5.9-.6 1.7zm10.5 3.1l.2.7c-.4.3-1 .4-1.6.4s-1.1-.2-1.4-.5c-.3-.3-.5-.8-.5-1.5v-4.6h-1.1v-.8h1.1v-2.1l.9-.1v2.2h2v.8h-2v4.5c0 .4.1.8.2 1 .2.2.5.3.9.3.5.1.9 0 1.3-.3zm7.4-3.8v4.8h-.9v-4.7c0-.6-.1-1-.4-1.3-.2-.3-.6-.4-1.1-.4-.4 0-.9.1-1.3.3-.4.2-.8.4-1.1.7v5.4h-.9v-7.2h.8l.1.9c.9-.7 1.8-1 2.7-1 1.4 0 2.1.8 2.1 2.5zm2.1-4.8c0-.5.3-.7.8-.7s.8.2.8.7-.3.7-.8.7-.8-.2-.8-.7zm.3 2.4h.9v7.2h-.9v-7.2zm6.1 7.4c-1.1 0-1.9-.3-2.4-1s-.8-1.6-.8-2.7c0-1.2.3-2.2.9-2.8.6-.6 1.4-1 2.5-1 .8 0 1.4.2 1.8.6s.7 1 .8 1.8l-.9.1c-.1-1.1-.7-1.7-1.8-1.7-.6 0-1.2.2-1.7.7-.4.4-.7 1.2-.7 2.2 0 1.1.2 1.9.6 2.3.4.4 1 .7 1.7.7 1.1 0 1.7-.5 1.9-1.6l.9.2c-.1.7-.4 1.3-.9 1.7-.5.3-1.1.5-1.9.5zm10.2 1.6l.6.3c-.1.3-.4.6-.6.7s-.6.3-.9.3c-.4 0-.7-.1-.9-.3-.2-.2-.4-.5-.4-.9 0-.6.4-1.3 1.1-1.9-.3-.1-.4-.4-.4-.8-.6.6-1.4.9-2.4.9-.4 0-.8-.1-1.1-.2-.3-.1-.5-.3-.7-.5s-.2-.4-.3-.6c-.1-.2-.1-.4-.1-.6 0-1.6 1.2-2.4 3.5-2.4h.9v-.7c0-.6-.1-1-.3-1.3-.2-.3-.6-.4-1.2-.4-.5 0-.9.1-1.2.3-.3.2-.4.5-.5 1l-.9-.2c.2-1.3 1.1-1.9 2.6-1.9.9 0 1.5.2 1.9.6.4.4.6 1 .6 1.9v3.7c0 .2 0 .4.1.4s.2.1.3.1c.1 0 .3 0 .4-.1l.1.6c-.4.2-.7.4-1.1.8-.3.4-.5.7-.5 1.1 0 .4.2.6.6.6.3.1.6-.1.8-.5zm-1.7-3.4v-1.8h-.9c-.6 0-1.1.1-1.6.2-.6.2-.9.6-.9 1.3 0 .9.5 1.3 1.4 1.3.4 0 .8-.1 1.1-.3.3-.1.7-.4.9-.7zm3.3 3.4l-.7-.1.7-2.9h1.1l-1.1 3zm7.2 1.2h-.9v-10.1h.8l.1.9c.8-.7 1.7-1 2.6-1 1.7 0 2.6 1.2 2.6 3.5 0 1.3-.3 2.3-.9 3-.6.6-1.3 1-2.2 1-.7 0-1.4-.3-2.1-.8v3.5zm.1-8.5v4c.7.6 1.4.9 2.1.9 1.4 0 2.1-1.1 2.1-3.2 0-1-.1-1.7-.4-2.1-.3-.4-.8-.6-1.4-.6-.4 0-.8.1-1.2.3s-.9.4-1.2.7zm10.4-1.8h.2v1c-.4-.1-.9 0-1.4.1-.5.1-.9.4-1.2.7v5.5h-.9v-7.2h.8l.1 1c.3-.4.7-.7 1-.9.4-.1.8-.2 1.4-.2zm6.2.1v.7l-4.3 5.7h4.5v.8h-5.6v-.7l4.3-5.7h-4.2v-.8h5.3zm4.3 7.4c-.6 0-1.1-.1-1.5-.3-.4-.2-.8-.5-1-.8s-.4-.8-.5-1.2c-.1-.4-.2-.9-.2-1.4 0-1.2.3-2.2.9-2.8.6-.6 1.4-.9 2.4-.9.9 0 1.6.3 2.1.8s.7 1.3.7 2.2c0 .4 0 .6-.1.9h-5c0 1 .2 1.7.6 2.1.4.4.9.6 1.7.6.5 0 .9-.1 1.2-.3s.5-.6.6-1l.9.2c-.1.7-.5 1.2-.9 1.5-.6.2-1.2.4-1.9.4zm-2.2-4.3h4.1c0-1.6-.6-2.3-1.9-2.3-.6 0-1.1.2-1.6.6-.3.3-.6.9-.6 1.7zm9.3-3.2c.8 0 1.4.2 1.8.5s.6.9.7 1.6l-.9.1c-.1-.5-.3-.9-.5-1.1-.2-.2-.6-.3-1.1-.3-1 0-1.5.4-1.5 1.2 0 .4.1.6.4.8.2.2.7.3 1.3.5.4.1.6.2.8.2.1 0 .3.1.6.2.4.1.6.4.8.6.2.3.2.6.3 1.1 0 .6-.2 1.1-.7 1.5s-1.1.5-2 .5c-1.7 0-2.6-.7-2.8-2.2l.9-.2c.1.5.3.9.6 1.2s.7.4 1.3.4c1.1 0 1.7-.4 1.7-1.2 0-.4-.1-.6-.4-.8-.3-.2-.7-.3-1.3-.5l-.4-.1-.5-.1-.4-.1c-.2-.1-.3-.1-.4-.2 0 0-.1-.1-.2-.1s-.2-.2-.3-.2l-.2-.2c-.1-.4-.2-.7-.2-1 0-.7.2-1.2.7-1.5.6-.4 1.2-.6 1.9-.6zm6 7.4l-2.6-7.2h1l2.1 6 2.2-6h1l-2.9 7.6c-.4 1-.7 1.7-1.1 2.1-.4.4-.8.6-1.4.6-.5 0-.9-.1-1.3-.3l.1-.7c.4.1.8.2 1.2.2.4 0 .7-.2 1-.5.2-.4.4-1 .7-1.8zm5-10.7h.9v4.4l1.3-.6v.9l-1.3.6v5.3h-.9v-4.9l-1.2.6v-.9l1.2-.6v-4.8zm8.5 5.8v3.7c0 .2 0 .4.1.4s.2.1.3.1c.1 0 .3 0 .4-.1l.1.6c-.3.1-.6.2-.9.2-.6 0-.9-.3-.9-.9-.6.6-1.4.9-2.4.9-.4 0-.8-.1-1.1-.2-.3-.1-.5-.3-.7-.5l-.3-.6c-.1-.2-.1-.4-.1-.6 0-1.6 1.2-2.4 3.5-2.4h.9v-.7c0-.6-.1-1-.3-1.3-.2-.3-.6-.4-1.2-.4-.5 0-.9.1-1.2.3-.3.2-.4.5-.5 1l-.9-.2c.2-1.3 1.1-1.9 2.6-1.9.9 0 1.5.2 1.9.6.5.5.7 1.1.7 2zm-1 3.2v-1.8h-.9c-.6 0-1.1.1-1.6.2-.6.2-.9.6-.9 1.3 0 .9.5 1.3 1.4 1.3.4 0 .8-.1 1.1-.3.4-.1.7-.4.9-.7zm4.5-3.8v5.4h-.9v-7.2h.8l.1.9c.9-.7 1.8-1 2.5-1 .9 0 1.5.3 1.8 1 .9-.7 1.8-1 2.6-1 .7 0 1.2.2 1.5.6s.5 1 .5 1.9v4.8h-.9v-4.7c0-.6-.1-1.1-.3-1.3-.2-.3-.5-.4-1-.4-.3 0-.7.1-1.1.3-.4.2-.8.4-1.1.7v5.5h-.9v-4.7c0-.6-.1-1.1-.3-1.3-.2-.3-.5-.4-1-.4-.4 0-.8.1-1.2.3-.5.1-.9.3-1.1.6zm20.2.6v4.8h-.9v-4.7c0-.6-.1-1-.3-1.3-.2-.3-.6-.4-1.1-.4-.4 0-.9.1-1.3.3-.4.2-.8.4-1.1.7v5.4h-.9v-7.2h.8l.1.9c.9-.7 1.8-1 2.7-1 1.2 0 2 .8 2 2.5zm7.3 0v3.7c0 .2 0 .4.1.4s.2.1.3.1c.1 0 .3 0 .4-.1l.1.6c-.3.1-.6.2-.9.2-.6 0-.9-.3-.9-.9-.6.6-1.4.9-2.4.9-.4 0-.8-.1-1.1-.2-.3-.1-.5-.3-.7-.5s-.2-.4-.3-.6c-.1-.2-.1-.4-.1-.6 0-1.6 1.2-2.4 3.5-2.4h.9v-.7c0-.6-.1-1-.3-1.3-.2-.3-.6-.4-1.2-.4-.5 0-.9.1-1.2.3-.3.2-.4.5-.5 1l-.9-.2c.2-1.3 1.1-1.9 2.6-1.9.9 0 1.5.2 1.9.6.5.5.7 1.1.7 2zm-.9 3.2v-1.8h-.9c-.6 0-1.1.1-1.6.2-.6.2-.9.6-.9 1.3 0 .9.5 1.3 1.4 1.3.4 0 .8-.1 1.1-.3.3-.1.6-.4.9-.7zm5.6-5.7c.8 0 1.4.2 1.8.5s.6.9.7 1.6l-.9.1c-.1-.5-.3-.9-.5-1.1s-.6-.3-1.1-.3c-1 0-1.5.4-1.5 1.2 0 .4.1.6.4.8s.7.3 1.4.5c.4.1.6.2.8.2.1 0 .3.1.6.2.4.1.6.4.8.6s.2.6.3 1.1c0 .6-.2 1.1-.7 1.5s-1.1.5-2 .5c-1.7 0-2.6-.7-2.8-2.2l.9-.2c.1.5.3.9.6 1.2s.7.4 1.3.4c1.1 0 1.7-.4 1.7-1.2 0-.4-.1-.6-.4-.8-.3-.2-.7-.3-1.3-.5l-.4-.1-.5-.1-.4-.1c-.2-.1-.3-.1-.4-.2 0 0-.1-.1-.2-.1s-.2-.2-.3-.2l-.2-.2c-.1-.4-.2-.7-.2-1 0-.7.2-1.2.7-1.5.5-.4 1.1-.6 1.8-.6zm9.1.1v.7l-4.3 5.7h4.5v.8h-5.6v-.7l4.3-5.7h-4.2v-.8h5.3zm7.1 9l.6.3c-.1.3-.4.6-.6.7-.3.2-.6.3-.9.3-.4 0-.7-.1-.9-.3s-.4-.5-.4-.9c0-.6.4-1.3 1.1-1.9-.3-.1-.4-.4-.4-.8-.6.6-1.4.9-2.4.9-.4 0-.8-.1-1.1-.2-.3-.1-.5-.3-.7-.5l-.3-.6c-.1-.2-.1-.4-.1-.6 0-1.6 1.2-2.4 3.5-2.4h.9v-.7c0-.6-.1-1-.3-1.3-.2-.3-.6-.4-1.2-.4-.5 0-.9.1-1.2.3-.3.2-.4.5-.5 1l-.9-.2c.2-1.3 1.1-1.9 2.6-1.9.9 0 1.5.2 1.9.6.4.4.6 1 .6 1.9v3.7c0 .2 0 .4.1.4s.2.1.3.1c.1 0 .3 0 .4-.1l.1.6c-.4.2-.7.4-1.1.8-.3.4-.5.7-.5 1.1 0 .4.2.6.6.6.3.1.6-.1.8-.5zm-1.7-3.4v-1.8h-.9c-.6 0-1.1.1-1.6.2-.6.2-.9.6-.9 1.3 0 .9.5 1.3 1.4 1.3.4 0 .8-.1 1.1-.3.3-.1.6-.4.9-.7zm9.4 1.8c-2.1 0-3.2-1.2-3.2-3.7 0-1.2.3-2.1.9-2.8.6-.7 1.4-1 2.5-1 1 0 1.8.3 2.3.9.5.6.8 1.5.8 2.6 0 2.7-1.1 4-3.3 4zm.1-.8c1.5 0 2.2-1 2.2-3 0-1-.2-1.7-.5-2.2-.4-.4-.9-.7-1.6-.7-.8 0-1.3.2-1.8.7s-.6 1.2-.6 2.2c0 2 .8 3 2.3 3zm8.3-9.9v.8c-.3-.1-.7-.2-1-.2-.7 0-1.1.4-1.1 1.3v1.4h2v.8h-2v6.4h-.9v-6.4h-1.1v-.8h1.1v-1.3c0-1.5.6-2.2 1.9-2.2.4 0 .8.1 1.1.2zm3.5 10.7c-.6 0-1.1-.1-1.5-.3-.4-.2-.8-.5-1-.8-.2-.4-.4-.8-.5-1.2-.1-.4-.2-.9-.2-1.4 0-1.2.3-2.2.9-2.8.6-.6 1.4-.9 2.4-.9.9 0 1.6.3 2.1.8s.7 1.3.7 2.2c0 .4 0 .6-.1.9h-5c0 1 .2 1.7.6 2.1.4.4.9.6 1.7.6.5 0 .9-.1 1.2-.3s.5-.6.6-1l.9.2c-.1.7-.5 1.2-.9 1.5-.5.2-1.1.4-1.9.4zm-2.2-4.3h4.1c0-1.6-.6-2.3-1.9-2.3-.6 0-1.1.2-1.6.6-.3.3-.5.9-.6 1.7zm10.4-3.2h.2v1c-.4-.1-.9 0-1.4.1-.5.1-.9.4-1.2.7v5.5h-.9v-7.2h.8l.1 1c.3-.4.7-.7 1-.9.4-.1.9-.2 1.4-.2zm5.2 6.3l.2.7c-.4.3-1 .4-1.6.4-.6 0-1.1-.2-1.4-.5-.3-.3-.5-.8-.5-1.5v-4.6h-1.1v-.8h1.1v-2.1l.9-.1v2.2h2v.8h-2v4.5c0 .4.1.8.2 1 .2.2.5.3.9.3.4.1.9 0 1.3-.3zm5.6 2.8l.6.3c-.1.3-.4.6-.6.7s-.6.3-.9.3c-.4 0-.7-.1-.9-.3s-.4-.5-.4-.9c0-.6.3-1.2 1-1.8h-.1c-.6 0-1.1-.1-1.5-.3-.4-.2-.8-.5-1-.8s-.4-.8-.5-1.2c-.1-.4-.2-.9-.2-1.4 0-1.2.3-2.2.9-2.8.6-.6 1.4-.9 2.4-.9.9 0 1.6.3 2.1.8s.7 1.3.7 2.2c0 .4 0 .6-.1.9h-5c0 1 .2 1.7.6 2.1.4.4.9.6 1.7.6.5 0 .9-.1 1.2-.3s.5-.6.6-1l.9.2c-.2.7-.6 1.3-1.2 1.8-.9.6-1.4 1.3-1.4 1.9 0 .4.2.6.6.6.1-.1.3-.3.5-.7zm-3.6-5.9h4.1c0-1.6-.6-2.3-1.9-2.3-.6 0-1.1.2-1.6.6-.4.3-.6.9-.6 1.7zm16.1-.7v4.8h-.9v-4.7c0-.6-.1-1-.3-1.3-.2-.3-.6-.4-1.1-.4-.4 0-.9.1-1.3.3-.4.2-.8.4-1.1.7v5.4h-.9v-7.2h.8l.1.9c.9-.7 1.8-1 2.7-1 1.2 0 2 .8 2 2.5zm7.3 0v3.7c0 .2 0 .4.1.4s.2.1.3.1c.1 0 .3 0 .4-.1l.1.6c-.3.1-.6.2-.9.2-.6 0-.9-.3-.9-.9-.6.6-1.4.9-2.4.9-.4 0-.8-.1-1.1-.2-.3-.1-.5-.3-.7-.5s-.2-.4-.3-.6c-.1-.2-.1-.4-.1-.6 0-1.6 1.2-2.4 3.5-2.4h.9v-.7c0-.6-.1-1-.3-1.3-.2-.3-.6-.4-1.2-.4-.5 0-.9.1-1.2.3-.3.2-.4.5-.5 1l-.9-.2c.2-1.3 1.1-1.9 2.6-1.9.9 0 1.5.2 1.9.6.5.5.7 1.1.7 2zm-.9 3.2v-1.8h-.9c-.6 0-1.1.1-1.6.2-.6.2-.9.6-.9 1.3 0 .9.5 1.3 1.4 1.3.4 0 .8-.1 1.1-.3.3-.1.6-.4.9-.7z"/></g><g class="st2"><path class="st5" d="M943.2 8709h-2.7v-10.1h2.9c1.7 0 2.9.4 3.8 1.3.8.8 1.3 2.1 1.3 3.7s-.4 2.9-1.3 3.8c-1 .8-2.3 1.3-4 1.3zm-1.8-9.3v8.5h1.8c1.4 0 2.4-.4 3.1-1.1.7-.7 1.1-1.8 1.1-3.1 0-1.6-.3-2.7-1-3.3-.7-.6-1.7-1-3.1-1h-1.9zm11.8 9.5c-2.1 0-3.2-1.2-3.2-3.7 0-1.2.3-2.1.9-2.8.6-.7 1.4-1 2.5-1 1 0 1.8.3 2.3.9.5.6.8 1.5.8 2.6 0 2.7-1.1 4-3.3 4zm.1-.8c1.5 0 2.2-1 2.2-3 0-1-.2-1.7-.5-2.2-.4-.4-.9-.7-1.6-.7-.8 0-1.3.2-1.8.7s-.6 1.2-.6 2.2c-.1 2 .7 3 2.3 3zm5.2-10h.9v4.4l1.3-.6v.9l-1.3.6v5.3h-.9v-4.9l-1.2.6v-.9l1.2-.6v-4.8zm9.2 12.4l.6.3c-.1.3-.4.6-.6.7s-.6.3-.9.3c-.4 0-.7-.1-.9-.3-.2-.2-.4-.5-.4-.9 0-.6.4-1.3 1.1-1.9-.3-.1-.4-.4-.4-.8-.6.6-1.4.9-2.4.9-.4 0-.8-.1-1.1-.2-.3-.1-.5-.3-.7-.5s-.2-.4-.3-.6c-.1-.2-.1-.4-.1-.6 0-1.6 1.2-2.4 3.5-2.4h.9v-.7c0-.6-.1-1-.3-1.3-.2-.3-.6-.4-1.2-.4-.5 0-.9.1-1.2.3-.3.2-.4.5-.5 1l-.9-.2c.2-1.3 1.1-1.9 2.6-1.9.9 0 1.5.2 1.9.6.4.4.6 1 .6 1.9v3.7c0 .2 0 .4.1.4s.2.1.3.1c.1 0 .3 0 .4-.1l.1.6c-.4.2-.7.4-1.1.8-.3.4-.5.7-.5 1.1 0 .4.2.6.6.6.4.1.6-.1.8-.5zm-1.7-3.4v-1.8h-.9c-.6 0-1.1.1-1.6.2-.6.2-.9.6-.9 1.3 0 .9.5 1.3 1.4 1.3.4 0 .8-.1 1.1-.3.4-.1.7-.4.9-.7zm6.1 1.8c-1.1 0-1.9-.3-2.4-1s-.8-1.6-.8-2.7c0-1.2.3-2.2.9-2.8.6-.6 1.4-1 2.5-1 .8 0 1.4.2 1.8.6s.7 1 .8 1.8l-.9.1c-.1-1.1-.7-1.7-1.8-1.7-.6 0-1.2.2-1.7.7-.4.4-.7 1.2-.7 2.2 0 1.1.2 1.9.6 2.3.4.4 1 .7 1.7.7 1.1 0 1.7-.5 1.9-1.6l.9.2c-.1.7-.4 1.3-.9 1.7-.5.3-1.1.5-1.9.5zm9.4-7.4v.7l-4.3 5.7h4.5v.8h-5.6v-.7l4.3-5.7h-4.2v-.8h5.3zm6.4 2.4v3.7c0 .2 0 .4.1.4s.2.1.3.1c.1 0 .3 0 .4-.1l.1.6c-.3.1-.6.2-.9.2-.6 0-.9-.3-.9-.9-.6.6-1.4.9-2.4.9-.4 0-.8-.1-1.1-.2-.3-.1-.5-.3-.7-.5s-.2-.4-.3-.6c-.1-.2-.1-.4-.1-.6 0-1.6 1.2-2.4 3.5-2.4h.9v-.7c0-.6-.1-1-.3-1.3-.2-.3-.6-.4-1.2-.4-.5 0-.9.1-1.2.3-.3.2-.4.5-.5 1l-.9-.2c.2-1.3 1.1-1.9 2.6-1.9.9 0 1.5.2 1.9.6.5.5.7 1.1.7 2zm-1 3.2v-1.8h-.9c-.6 0-1.1.1-1.6.2-.6.2-.9.6-.9 1.3 0 .9.5 1.3 1.4 1.3.4 0 .8-.1 1.1-.3.4-.1.7-.4.9-.7zm4.5-3.8v5.4h-.9v-7.2h.8l.1.9c.9-.7 1.8-1 2.5-1 .9 0 1.5.3 1.8 1 .9-.7 1.8-1 2.6-1 .7 0 1.2.2 1.5.6s.5 1 .5 1.9v4.8h-.9v-4.7c0-.6-.1-1.1-.3-1.3-.2-.3-.5-.4-1-.4-.3 0-.7.1-1.1.3-.4.2-.8.4-1.1.7v5.5h-.9v-4.7c0-.6-.1-1.1-.3-1.3-.2-.3-.5-.4-1-.4-.4 0-.8.1-1.2.3-.5.1-.9.3-1.1.6zm12.6 5.5l-2.6-7.2h1l2.1 6 2.2-6h1l-2.9 7.6c-.4 1-.7 1.7-1.1 2.1-.4.4-.8.6-1.4.6-.5 0-.9-.1-1.3-.3l.1-.7c.4.1.8.2 1.2.2.4 0 .7-.2 1-.5.2-.4.4-1 .7-1.8zm11.7-1.1l.2.7c-.4.3-1 .4-1.6.4s-1.1-.2-1.4-.5c-.3-.3-.5-.8-.5-1.5v-4.6h-1.1v-.8h1.1v-2.1l.9-.1v2.2h2v.8h-2v4.5c0 .4.1.8.2 1 .2.2.5.3.9.3.4.1.9 0 1.3-.3zm4.2 1.2c-.6 0-1.1-.1-1.5-.3-.4-.2-.8-.5-1-.8-.2-.4-.4-.8-.5-1.2-.1-.4-.2-.9-.2-1.4 0-1.2.3-2.2.9-2.8.6-.6 1.4-.9 2.4-.9.9 0 1.6.3 2.1.8s.7 1.3.7 2.2c0 .4 0 .6-.1.9h-5c0 1 .2 1.7.6 2.1.4.4.9.6 1.7.6.5 0 .9-.1 1.2-.3s.5-.6.6-1l.9.2c-.1.7-.5 1.2-.9 1.5-.6.2-1.2.4-1.9.4zm-2.2-4.3h4.1c0-1.6-.6-2.3-1.9-2.3-.6 0-1.1.2-1.6.6-.3.3-.6.9-.6 1.7zm11.4-3.1v.7l-4.3 5.7h4.5v.8h-5.6v-.7l4.3-5.7h-4.2v-.8h5.3zm-3.4-2.3c0-.5.3-.7.8-.7s.8.2.8.7c0 .5-.3.7-.8.7s-.8-.2-.8-.7zm13.1-1.1h.9v10.6h-.8l-.1-.8c-.8.6-1.6 1-2.5 1-1.8 0-2.7-1.2-2.7-3.7 0-1.3.3-2.3.8-2.9.6-.6 1.3-.9 2.2-.9.8 0 1.5.2 2.1.7v-4zm0 8.9v-4.1c-.7-.5-1.4-.7-2.1-.7-1.4 0-2.1 1-2.1 3.1 0 1 .2 1.7.5 2.2.3.5.8.7 1.5.7.4 0 .8-.1 1.2-.3.3-.3.7-.5 1-.9zm6.1 1.9c-2.1 0-3.2-1.2-3.2-3.7 0-1.2.3-2.1.9-2.8.6-.7 1.4-1 2.5-1 1 0 1.8.3 2.3.9.5.6.8 1.5.8 2.6 0 2.7-1.1 4-3.3 4zm.1-.8c1.5 0 2.2-1 2.2-3 0-1-.2-1.7-.5-2.2-.4-.4-.9-.7-1.6-.7-.8 0-1.3.2-1.8.7s-.6 1.2-.6 2.2c-.1 2 .7 3 2.3 3zm9.8-10h.9v10.6h-.8l-.1-.8c-.8.6-1.6 1-2.5 1-1.8 0-2.7-1.2-2.7-3.7 0-1.3.3-2.3.8-2.9.6-.6 1.3-.9 2.2-.9.8 0 1.5.2 2.1.7v-4zm0 8.9v-4.1c-.7-.5-1.4-.7-2.1-.7-1.4 0-2.1 1-2.1 3.1 0 1 .2 1.7.5 2.2.3.5.8.7 1.5.7.4 0 .8-.1 1.2-.3.4-.3.7-.5 1-.9zm8.3-3.1v3.7c0 .2 0 .4.1.4s.2.1.3.1c.1 0 .3 0 .4-.1l.1.6c-.3.1-.6.2-.9.2-.6 0-.9-.3-.9-.9-.6.6-1.4.9-2.4.9-.4 0-.8-.1-1.1-.2-.3-.1-.5-.3-.7-.5s-.2-.4-.3-.6c-.1-.2-.1-.4-.1-.6 0-1.6 1.2-2.4 3.5-2.4h.9v-.7c0-.6-.1-1-.3-1.3-.2-.3-.6-.4-1.2-.4-.5 0-.9.1-1.2.3-.3.2-.4.5-.5 1l-.9-.2c.2-1.3 1.1-1.9 2.6-1.9.9 0 1.5.2 1.9.6.5.5.7 1.1.7 2zm-.9 3.2v-1.8h-.9c-.6 0-1.1.1-1.6.2-.6.2-.9.6-.9 1.3 0 .9.5 1.3 1.4 1.3.4 0 .8-.1 1.1-.3.3-.1.6-.4.9-.7zm6.8.6l.2.7c-.4.3-1 .4-1.6.4s-1.1-.2-1.4-.5c-.3-.3-.5-.8-.5-1.5v-4.6h-1.1v-.8h1.1v-2.1l.9-.1v2.2h2v.8h-2v4.5c0 .4.1.8.2 1 .2.2.5.3.9.3.4.1.8 0 1.3-.3zm1.6-9.6h.9v6.9l3.4-3.5h1.1l-2.5 2.6 2.7 4.6h-1l-2.4-3.9-1.3 1.3v2.6h-.9v-10.6zm9.6 10.8c-2.1 0-3.2-1.2-3.2-3.7 0-1.2.3-2.1.9-2.8.6-.7 1.4-1 2.5-1 1 0 1.8.3 2.3.9.5.6.8 1.5.8 2.6 0 2.7-1.1 4-3.3 4zm.1-.8c1.5 0 2.2-1 2.2-3 0-1-.2-1.7-.5-2.2-.4-.4-.9-.7-1.6-.7-.8 0-1.3.2-1.8.7s-.6 1.2-.6 2.2c0 2 .8 3 2.3 3zm9.1-5.5l-1.6 6.1h-1.1l-2.3-7.2h1l1.9 6.2 1.7-6.2h1l1.7 6.2 1.9-6.2h.9l-2.3 7.2h-1.1l-1.7-6.1zm9.2 6.3c-.6 0-1.1-.1-1.5-.3-.4-.2-.8-.5-1-.8s-.4-.8-.5-1.2c-.1-.4-.2-.9-.2-1.4 0-1.2.3-2.2.9-2.8.6-.6 1.4-.9 2.4-.9.9 0 1.6.3 2.1.8s.7 1.3.7 2.2c0 .4 0 .6-.1.9h-5c0 1 .2 1.7.6 2.1.4.4.9.6 1.7.6.5 0 .9-.1 1.2-.3s.5-.6.6-1l.9.2c-.1.7-.5 1.2-.9 1.5-.6.2-1.2.4-1.9.4zm-2.3-4.3h4.1c0-1.6-.6-2.3-1.9-2.3-.6 0-1.1.2-1.6.6-.3.3-.5.9-.6 1.7zm10.1-5.5c0-.5.3-.7.8-.7s.8.2.8.7-.3.7-.8.7-.8-.2-.8-.7zm.3 2.4h.9v7.2h-.9v-7.2zm9.1 2.4v4.8h-.9v-4.7c0-.6-.1-1-.4-1.3-.2-.3-.6-.4-1.1-.4-.4 0-.9.1-1.3.3-.4.2-.8.4-1.1.7v5.4h-.9v-7.2h.8l.1.9c.9-.7 1.8-1 2.7-1 1.4 0 2.1.8 2.1 2.5zm5.7-5.7v.8c-.3-.1-.7-.2-1-.2-.7 0-1.1.4-1.1 1.3v1.4h2v.8h-2v6.4h-.9v-6.4h-1.1v-.8h1.1v-1.3c0-1.5.6-2.2 1.9-2.2.4 0 .8.1 1.1.2zm3.5 10.7c-2.1 0-3.2-1.2-3.2-3.7 0-1.2.3-2.1.9-2.8.6-.7 1.4-1 2.5-1 1 0 1.8.3 2.3.9.5.6.8 1.5.8 2.6-.1 2.7-1.2 4-3.3 4zm0-.8c1.5 0 2.2-1 2.2-3 0-1-.2-1.7-.5-2.2-.4-.4-.9-.7-1.6-.7-.8 0-1.3.2-1.8.7-.4.5-.6 1.2-.6 2.2 0 2 .8 3 2.3 3zm8.6-6.7h.2v1c-.4-.1-.9 0-1.4.1-.5.1-.9.4-1.2.7v5.5h-.9v-7.2h.8l.1 1c.3-.4.7-.7 1-.9.3-.1.8-.2 1.4-.2zm2.5 1.9v5.4h-.9v-7.2h.8l.1.9c.9-.7 1.8-1 2.5-1 .9 0 1.5.3 1.8 1 .9-.7 1.8-1 2.6-1 .7 0 1.2.2 1.5.6s.5 1 .5 1.9v4.8h-.9v-4.7c0-.6-.1-1.1-.3-1.3-.2-.3-.5-.4-1-.4-.3 0-.7.1-1.1.3-.4.2-.8.4-1.1.7v5.5h-.9v-4.7c0-.6-.1-1.1-.3-1.3-.2-.3-.5-.4-1-.4-.4 0-.8.1-1.2.3-.4.1-.8.3-1.1.6zm16.2.6v3.7c0 .2 0 .4.1.4s.2.1.3.1c.1 0 .3 0 .4-.1l.1.6c-.3.1-.6.2-.9.2-.6 0-.9-.3-.9-.9-.6.6-1.4.9-2.4.9-.4 0-.8-.1-1.1-.2-.3-.1-.5-.3-.7-.5s-.2-.4-.3-.6c-.1-.2-.1-.4-.1-.6 0-1.6 1.2-2.4 3.5-2.4h.9v-.7c0-.6-.1-1-.3-1.3-.2-.3-.6-.4-1.2-.4-.5 0-.9.1-1.2.3-.3.2-.4.5-.5 1l-.9-.2c.2-1.3 1.1-1.9 2.6-1.9.9 0 1.5.2 1.9.6.5.5.7 1.1.7 2zm-.9 3.2v-1.8h-.9c-.6 0-1.1.1-1.6.2-.6.2-.9.6-.9 1.3 0 .9.5 1.3 1.4 1.3.4 0 .8-.1 1.1-.3.3-.1.6-.4.9-.7zm6.1 1.8c-1.1 0-1.9-.3-2.4-1s-.8-1.6-.8-2.7c0-1.2.3-2.2.9-2.8.6-.6 1.4-1 2.5-1 .8 0 1.4.2 1.8.6.5.4.7 1 .8 1.8l-.9.1c-.1-1.1-.7-1.7-1.8-1.7-.6 0-1.2.2-1.7.7-.4.4-.7 1.2-.7 2.2 0 1.1.2 1.9.6 2.3.4.4 1 .7 1.7.7 1.1 0 1.7-.5 1.9-1.6l.9.2c-.1.7-.4 1.3-.9 1.7s-1.2.5-1.9.5zm3.8 2.9c-.6 0-1-.1-1.2-.2l.1-.8c.4.1.7.2 1 .2.6 0 1-.4 1-1.2v-8.3h.9v8.3c.1 1.4-.5 2-1.8 2zm.7-12.7c0-.5.3-.7.8-.7s.8.2.8.7-.3.7-.8.7c-.6 0-.8-.2-.8-.7zm6.3 9.8c-.6 0-1.1-.1-1.5-.3-.4-.2-.8-.5-1-.8-.2-.4-.4-.8-.5-1.2-.1-.4-.2-.9-.2-1.4 0-1.2.3-2.2.9-2.8.6-.6 1.4-.9 2.4-.9.9 0 1.6.3 2.1.8s.7 1.3.7 2.2c0 .4 0 .6-.1.9h-5c0 1 .2 1.7.6 2.1.4.4.9.6 1.7.6.5 0 .9-.1 1.2-.3s.5-.6.6-1l.9.2c-.1.7-.5 1.2-.9 1.5-.6.2-1.2.4-1.9.4zm-2.2-4.3h4.1c0-1.6-.6-2.3-1.9-2.3-.6 0-1.1.2-1.6.6-.3.3-.6.9-.6 1.7zm6.5 5.9l-.7-.1.7-2.9h1.1l-1.1 3zm6.3-12.4h.9v6.9l3.4-3.5h1.1l-2.5 2.6 2.7 4.6h-1l-2.4-3.9-1.3 1.3v2.6h-.9v-10.6zm10.6 9.6l.2.7c-.4.3-1 .4-1.6.4s-1.1-.2-1.4-.5-.5-.8-.5-1.5v-4.6h-1.1v-.8h1.1v-2.1l.9-.1v2.2h2v.8h-2v4.5c0 .4.1.8.2 1 .2.2.5.3.9.3.5.1.9 0 1.3-.3zm4.3 1.2c-2.1 0-3.2-1.2-3.2-3.7 0-1.2.3-2.1.9-2.8.6-.7 1.4-1 2.5-1 1 0 1.8.3 2.3.9.5.6.8 1.5.8 2.6-.1 2.7-1.1 4-3.3 4zm0-.8c1.5 0 2.2-1 2.2-3 0-1-.2-1.7-.5-2.2-.4-.4-.9-.7-1.6-.7-.8 0-1.3.2-1.8.7s-.6 1.2-.6 2.2c0 2 .8 3 2.3 3zm.5-9.9h1.2l-2 2.5-.7-.2 1.5-2.3zm8.1 3.2h.2v1c-.4-.1-.9 0-1.4.1-.5.1-.9.4-1.2.7v5.5h-.9v-7.2h.8l.1 1c.3-.4.7-.7 1-.9s.8-.2 1.4-.2zm4.1 7.5c-.6 0-1.1-.1-1.5-.3-.4-.2-.8-.5-1-.8-.2-.4-.4-.8-.5-1.2-.1-.4-.2-.9-.2-1.4 0-1.2.3-2.2.9-2.8.6-.6 1.4-.9 2.4-.9.9 0 1.6.3 2.1.8s.7 1.3.7 2.2c0 .4 0 .6-.1.9h-5c0 1 .2 1.7.6 2.1.4.4.9.6 1.7.6.5 0 .9-.1 1.2-.3s.5-.6.6-1l.9.2c-.1.7-.5 1.2-.9 1.5-.6.2-1.2.4-1.9.4zm-2.2-4.3h4.1c0-1.6-.6-2.3-1.9-2.3-.6 0-1.1.2-1.6.6-.3.3-.6.9-.6 1.7z"/></g><g class="st2"><path class="st5" d="M941.2 8736h-.9v-10.1h.8l.1.9c.8-.7 1.7-1 2.6-1 1.7 0 2.6 1.2 2.6 3.5 0 1.3-.3 2.3-.9 3-.6.6-1.3 1-2.2 1-.7 0-1.4-.3-2.1-.8v3.5zm0-8.5v4c.7.6 1.4.9 2.1.9 1.4 0 2.1-1.1 2.1-3.2 0-1-.1-1.7-.4-2.1-.3-.4-.8-.6-1.4-.6-.4 0-.8.1-1.2.3s-.9.4-1.2.7zm9.9 5.7c-2.1 0-3.2-1.2-3.2-3.7 0-1.2.3-2.1.9-2.8.6-.7 1.4-1 2.5-1 1 0 1.8.3 2.3.9.5.6.8 1.5.8 2.6-.1 2.7-1.1 4-3.3 4zm0-.8c1.5 0 2.2-1 2.2-3 0-1-.2-1.7-.5-2.2-.4-.4-.9-.7-1.6-.7-.8 0-1.3.2-1.8.7s-.6 1.2-.6 2.2c0 2 .8 3 2.3 3zm9.2-5.5l-1.6 6.1h-1.1l-2.3-7.2h1l1.9 6.2 1.7-6.2h1l1.7 6.2 1.9-6.2h.9l-2.3 7.2H962l-1.7-6.1zm6.1-3.5c0-.5.3-.7.8-.7s.8.2.8.7-.3.7-.8.7-.8-.2-.8-.7zm.3 2.4h.9v7.2h-.9v-7.2zm6.1 7.4c-.6 0-1.1-.1-1.5-.3-.4-.2-.8-.5-1-.8-.2-.4-.4-.8-.5-1.2-.1-.4-.2-.9-.2-1.4 0-1.2.3-2.2.9-2.8.6-.6 1.4-.9 2.4-.9.9 0 1.6.3 2.1.8s.7 1.3.7 2.2c0 .4 0 .6-.1.9h-5c0 1 .2 1.7.6 2.1.4.4.9.6 1.7.6.5 0 .9-.1 1.2-.3s.5-.6.6-1l.9.2c-.1.7-.5 1.2-.9 1.5-.6.2-1.2.4-1.9.4zm-2.2-4.3h4.1c0-1.6-.6-2.3-1.9-2.3-.6 0-1.1.2-1.6.6-.4.3-.6.9-.6 1.7zm11.7-6.5h.9v10.6h-.8l-.1-.8c-.8.6-1.6 1-2.5 1-1.8 0-2.7-1.2-2.7-3.7 0-1.3.3-2.3.8-2.9.6-.6 1.3-.9 2.2-.9.8 0 1.5.2 2.1.7v-4zm0 8.9v-4.1c-.7-.5-1.4-.7-2.1-.7-1.4 0-2.1 1-2.1 3.1 0 1 .2 1.7.5 2.2.3.5.8.7 1.5.7.4 0 .8-.1 1.2-.3.4-.3.7-.5 1-.9zm8-5.5v.7l-4.3 5.7h4.5v.8h-5.6v-.7l4.3-5.7H985v-.8h5.3zm7.1 9l.6.3c-.1.3-.4.6-.6.7s-.6.3-.9.3c-.4 0-.7-.1-.9-.3-.2-.2-.4-.5-.4-.9 0-.6.4-1.3 1.1-1.9-.3-.1-.4-.4-.4-.8-.6.6-1.4.9-2.4.9-.4 0-.8-.1-1.1-.2-.3-.1-.5-.3-.7-.5s-.2-.4-.3-.6c-.1-.2-.1-.4-.1-.6 0-1.6 1.2-2.4 3.5-2.4h.9v-.7c0-.6-.1-1-.3-1.3-.2-.3-.6-.4-1.2-.4-.5 0-.9.1-1.2.3-.3.2-.4.5-.5 1l-.9-.2c.2-1.3 1.1-1.9 2.6-1.9.9 0 1.5.2 1.9.6.4.4.6 1 .6 1.9v3.7c0 .2 0 .4.1.4s.2.1.3.1c.1 0 .3 0 .4-.1l.1.6c-.4.2-.7.4-1.1.8-.3.4-.5.7-.5 1.1 0 .4.2.6.6.6.4.1.6-.1.8-.5zm-1.6-3.4v-1.8h-.9c-.6 0-1.1.1-1.6.2-.6.2-.9.6-.9 1.3 0 .9.5 1.3 1.4 1.3.4 0 .8-.1 1.1-.3.3-.1.6-.4.9-.7zm9.4 1.8c-2.1 0-3.2-1.2-3.2-3.7 0-1.2.3-2.1.9-2.8.6-.7 1.4-1 2.5-1 1 0 1.8.3 2.3.9.5.6.8 1.5.8 2.6 0 2.7-1.1 4-3.3 4zm.1-.8c1.5 0 2.2-1 2.2-3 0-1-.2-1.7-.5-2.2-.4-.4-.9-.7-1.6-.7-.8 0-1.3.2-1.8.7s-.6 1.2-.6 2.2c-.1 2 .7 3 2.3 3zm14.2-4.2v4.8h-.9v-4.7c0-.6-.1-1-.4-1.3-.2-.3-.6-.4-1.1-.4-.4 0-.9.1-1.3.3-.4.2-.8.4-1.1.7v5.4h-.9v-7.2h.8l.1.9c.9-.7 1.8-1 2.7-1 1.3 0 2.1.8 2.1 2.5zm7.3 0v3.7c0 .2 0 .4.1.4s.2.1.3.1c.1 0 .3 0 .4-.1l.1.6c-.3.1-.6.2-.9.2-.6 0-.9-.3-.9-.9-.6.6-1.4.9-2.4.9-.4 0-.8-.1-1.1-.2-.3-.1-.5-.3-.7-.5s-.2-.4-.3-.6c-.1-.2-.1-.4-.1-.6 0-1.6 1.2-2.4 3.5-2.4h.9v-.7c0-.6-.1-1-.3-1.3-.2-.3-.6-.4-1.2-.4-.5 0-.9.1-1.2.3-.3.2-.4.5-.5 1l-.9-.2c.2-1.3 1.1-1.9 2.6-1.9.9 0 1.5.2 1.9.6.5.5.7 1.1.7 2zm-.9 3.2v-1.8h-.9c-.6 0-1.1.1-1.6.2-.6.2-.9.6-.9 1.3 0 .9.5 1.3 1.4 1.3.4 0 .8-.1 1.1-.3.3-.1.6-.4.9-.7zm5.6-5.7c.8 0 1.4.2 1.8.5s.6.9.7 1.6l-.9.1c-.1-.5-.3-.9-.5-1.1-.2-.2-.6-.3-1.1-.3-1 0-1.5.4-1.5 1.2 0 .4.1.6.4.8.2.2.7.3 1.4.5.4.1.6.2.8.2.1 0 .3.1.6.2.4.1.6.4.8.6.2.3.2.6.3 1.1 0 .6-.2 1.1-.7 1.5s-1.1.5-2 .5c-1.7 0-2.6-.7-2.8-2.2l.9-.2c.1.5.3.9.6 1.2s.7.4 1.3.4c1.1 0 1.7-.4 1.7-1.2 0-.4-.1-.6-.4-.8-.3-.2-.7-.3-1.3-.5l-.4-.1-.5-.1-.4-.1c-.2-.1-.3-.1-.4-.2 0 0-.1-.1-.2-.1s-.2-.2-.3-.2l-.2-.2c-.1-.4-.2-.7-.2-1 0-.7.2-1.2.7-1.5.5-.4 1.1-.6 1.8-.6zm11.3 6.3l.2.7c-.4.3-1 .4-1.6.4s-1.1-.2-1.4-.5c-.3-.3-.5-.8-.5-1.5v-4.6h-1.1v-.8h1.1v-2.1l.9-.1v2.2h2v.8h-2v4.5c0 .4.1.8.2 1 .2.2.5.3.9.3.5.1.9 0 1.3-.3zm4.9-6.3h.2v1c-.4-.1-.9 0-1.4.1-.5.1-.9.4-1.2.7v5.5h-.9v-7.2h.8l.1 1c.3-.4.7-.7 1-.9.4-.1.9-.2 1.4-.2zm4.2 7.5c-2.1 0-3.2-1.2-3.2-3.7 0-1.2.3-2.1.9-2.8.6-.7 1.4-1 2.5-1 1 0 1.8.3 2.3.9.5.6.8 1.5.8 2.6 0 2.7-1.1 4-3.3 4zm.1-.8c1.5 0 2.2-1 2.2-3 0-1-.2-1.7-.5-2.2-.4-.4-.9-.7-1.6-.7-.8 0-1.3.2-1.8.7s-.6 1.2-.6 2.2c-.1 2 .7 3 2.3 3zm7.9.8c-1.1 0-1.9-.3-2.4-1s-.8-1.6-.8-2.7c0-1.2.3-2.2.9-2.8.6-.6 1.4-1 2.5-1 .8 0 1.4.2 1.8.6s.7 1 .8 1.8l-.9.1c-.1-1.1-.7-1.7-1.8-1.7-.6 0-1.2.2-1.7.7-.4.4-.7 1.2-.7 2.2 0 1.1.2 1.9.6 2.3.4.4 1 .7 1.7.7 1.1 0 1.7-.5 1.9-1.6l.9.2c-.1.7-.4 1.3-.9 1.7-.5.3-1.1.5-1.9.5zm10.5-5v4.8h-.9v-4.7c0-.6-.1-1-.4-1.3-.2-.3-.6-.4-1.1-.4-.4 0-.9.1-1.3.3-.4.2-.8.4-1.1.7v5.4h-.9v-10.6h.9v4.3c.9-.7 1.8-1 2.6-1 1.5 0 2.2.8 2.2 2.5zm6.6 6.6l.6.3c-.1.3-.4.6-.6.7s-.6.3-.9.3c-.4 0-.7-.1-.9-.3-.2-.2-.4-.5-.4-.9 0-.6.3-1.2 1-1.8h-.1c-.6 0-1.1-.1-1.5-.3-.4-.2-.8-.5-1-.8-.2-.4-.4-.8-.5-1.2-.1-.4-.2-.9-.2-1.4 0-1.2.3-2.2.9-2.8.6-.6 1.4-.9 2.4-.9.9 0 1.6.3 2.1.8s.7 1.3.7 2.2c0 .4 0 .6-.1.9h-5c0 1 .2 1.7.6 2.1.4.4.9.6 1.7.6.5 0 .9-.1 1.2-.3s.5-.6.6-1l.9.2c-.2.7-.6 1.3-1.2 1.8-.9.6-1.4 1.3-1.4 1.9 0 .4.2.6.6.6 0-.1.3-.3.5-.7zm-3.6-5.9h4.1c0-1.6-.6-2.3-1.9-2.3-.6 0-1.1.2-1.6.6-.4.3-.6.9-.6 1.7zm14.2-2l-1.6 6.1h-1.1l-2.3-7.2h1l1.9 6.2 1.7-6.2h1l1.7 6.2 1.9-6.2h.9l-2.3 7.2h-1.1l-1.7-6.1zm6.2-3.5c0-.5.3-.7.8-.7s.8.2.8.7-.3.7-.8.7-.8-.2-.8-.7zm.2 2.4h.9v7.2h-.9v-7.2zm7.6 9l.6.3c-.1.3-.4.6-.6.7s-.6.3-.9.3c-.4 0-.7-.1-.9-.3-.2-.2-.4-.5-.4-.9 0-.6.3-1.2 1-1.8h-.1c-.6 0-1.1-.1-1.5-.3-.4-.2-.8-.5-1-.8-.2-.4-.4-.8-.5-1.2-.1-.4-.2-.9-.2-1.4 0-1.2.3-2.2.9-2.8.6-.6 1.4-.9 2.4-.9.9 0 1.6.3 2.1.8s.7 1.3.7 2.2c0 .4 0 .6-.1.9h-5c0 1 .2 1.7.6 2.1.4.4.9.6 1.7.6.5 0 .9-.1 1.2-.3s.5-.6.6-1l.9.2c-.2.7-.6 1.3-1.2 1.8-.9.6-1.4 1.3-1.4 1.9 0 .4.2.6.6.6 0-.1.3-.3.5-.7zm-3.7-5.9h4.1c0-1.6-.6-2.3-1.9-2.3-.6 0-1.1.2-1.6.6-.3.3-.5.9-.6 1.7zm9.9 4.3c-1.1 0-1.9-.3-2.4-1s-.8-1.6-.8-2.7c0-1.2.3-2.2.9-2.8.6-.6 1.4-1 2.5-1 .8 0 1.4.2 1.8.6.5.4.7 1 .8 1.8l-.9.1c-.1-1.1-.7-1.7-1.8-1.7-.6 0-1.2.2-1.7.7-.4.4-.7 1.2-.7 2.2 0 1.1.2 1.9.6 2.3.4.4 1 .7 1.7.7 1.1 0 1.7-.5 1.9-1.6l.9.2c-.1.7-.4 1.3-.9 1.7s-1.2.5-1.9.5zm7.5 0c-.6 0-1.1-.1-1.5-.3-.4-.2-.8-.5-1-.8s-.4-.8-.5-1.2c-.1-.4-.2-.9-.2-1.4 0-1.2.3-2.2.9-2.8.6-.6 1.4-.9 2.4-.9.9 0 1.6.3 2.1.8s.7 1.3.7 2.2c0 .4 0 .6-.1.9h-5c0 1 .2 1.7.6 2.1s.9.6 1.7.6c.5 0 .9-.1 1.2-.3s.5-.6.6-1l.9.2c-.1.7-.5 1.2-.9 1.5-.6.2-1.2.4-1.9.4zm-2.2-4.3h4.1c0-1.6-.6-2.3-1.9-2.3-.6 0-1.1.2-1.6.6-.4.3-.6.9-.6 1.7zm6.2 7.2c-.6 0-1-.1-1.2-.2l.1-.8c.4.1.7.2 1 .2.6 0 1-.4 1-1.2v-8.3h.9v8.3c0 1.4-.6 2-1.8 2zm.6-12.7c0-.5.3-.7.8-.7s.8.2.8.7-.3.7-.8.7-.8-.2-.8-.7zm3.1 3.5c0-.5.3-.8.8-.8s.8.3.8.8-.3.8-.8.8-.8-.3-.8-.8zm0 5.5c0-.5.3-.8.8-.8s.8.3.8.8-.3.8-.8.8-.8-.3-.8-.8z"/></g><g class="st2"><path class="st5" d="M943.1 8597.1h-1.7v3.9h-.9v-10.1h3.1c1.2 0 2 .3 2.6.8.5.5.8 1.3.8 2.2-.1 2.1-1.3 3.2-3.9 3.2zm-1.7-5.4v4.6h1.7c.7 0 1.3-.1 1.7-.3.8-.3 1.2-1 1.2-2.2 0-.9-.3-1.5-.8-1.8-.5-.3-1.3-.4-2.5-.4h-1.3zm11.8 4.5v3.7c0 .2 0 .4.1.4s.2.1.3.1c.1 0 .3 0 .4-.1l.1.6c-.3.1-.6.2-.9.2-.6 0-.9-.3-.9-.9-.6.6-1.4.9-2.4.9-.4 0-.8-.1-1.1-.2-.3-.1-.5-.3-.7-.5s-.2-.4-.3-.6c-.1-.2-.1-.4-.1-.6 0-1.6 1.2-2.4 3.5-2.4h.9v-.7c0-.6-.1-1-.3-1.3-.2-.3-.6-.4-1.2-.4-.5 0-.9.1-1.2.3-.3.2-.4.5-.5 1l-.9-.2c.2-1.3 1.1-1.9 2.6-1.9.9 0 1.5.2 1.9.6.5.5.7 1.1.7 2zm-1 3.2v-1.8h-.9c-.6 0-1.1.1-1.6.2-.6.2-.9.6-.9 1.3 0 .9.5 1.3 1.4 1.3.4 0 .8-.1 1.1-.3.4-.1.7-.4.9-.7zm9.3-3.2v4.8h-.9v-4.7c0-.6-.1-1-.4-1.3-.2-.3-.6-.4-1.1-.4-.4 0-.9.1-1.3.3-.4.2-.8.4-1.1.7v5.4h-.9v-7.2h.8l.1.9c.9-.7 1.8-1 2.7-1 1.3 0 2.1.8 2.1 2.5zm2.1-4.8c0-.5.3-.7.8-.7s.8.2.8.7-.3.7-.8.7-.8-.2-.8-.7zm.3 2.4h.9v7.2h-.9v-7.2zm6.1 7.4c-.6 0-1.1-.1-1.5-.3-.4-.2-.8-.5-1-.8-.2-.4-.4-.8-.5-1.2-.1-.4-.2-.9-.2-1.4 0-1.2.3-2.2.9-2.8.6-.6 1.4-.9 2.4-.9.9 0 1.6.3 2.1.8s.7 1.3.7 2.2c0 .4 0 .6-.1.9h-5c0 1 .2 1.7.6 2.1.4.4.9.6 1.7.6.5 0 .9-.1 1.2-.3s.5-.6.6-1l.9.2c-.1.7-.5 1.2-.9 1.5-.6.2-1.2.4-1.9.4zm-2.2-4.3h4.1c0-1.6-.6-2.3-1.9-2.3-.6 0-1.1.2-1.6.6-.4.3-.6.9-.6 1.7z"/></g><g class="st2"><path class="st6" d="M942 8655.1h-1.6v4.6h1.6v1.4h-3.3v-7.4h3.3v1.4zm5.6 5.1c-1.3 0-2.3-.3-3.1-.9-.8-.6-1.1-1.4-1.1-2.5s.4-1.9 1.1-2.5c.8-.6 1.8-.9 3.1-.9s2.3.3 3.1.9c.8.6 1.1 1.4 1.1 2.5s-.4 1.9-1.1 2.5c-.7.6-1.8.9-3.1.9zm-1.4-2.1c.4.3.8.4 1.4.4.6 0 1.1-.1 1.4-.4s.5-.7.5-1.2-.2-.9-.5-1.2c-.4-.3-.8-.4-1.4-.4-.6 0-1.1.1-1.4.4-.4.3-.5.7-.5 1.2s.2.9.5 1.2zm11.9-4.4c.9 0 1.7.2 2.2.6s.8.9.8 1.7-.3 1.3-.8 1.7c-.5.4-1.3.6-2.2.6h-2.2v1.8h-2.2v-6.3h4.4zm-.1 3.1c.6 0 1-.3 1-.8s-.3-.7-1-.7h-2v1.5h2zm7.1 3.2h-2.2v-6.3h2.2v6.3zm5.7-4.1c.6 0 1.1.1 1.5.2s.8.2 1.1.3c.3.2.6.4.8.6.2.3.3.6.3.9 0 .7-.3 1.2-.9 1.6-.6.4-1.5.6-2.6.6-1.7 0-3-.4-4.1-1.2l1.1-1.3c.8.6 1.8.9 3 .9.9 0 1.3-.2 1.3-.5 0-.2-.1-.3-.3-.3-.2-.1-.6-.1-1.2-.2-.5 0-1-.1-1.4-.2s-.8-.2-1.1-.4c-.4-.2-.6-.4-.8-.6-.2-.3-.3-.6-.3-.9 0-.7.3-1.2 1-1.6.7-.4 1.5-.6 2.6-.6 1.4 0 2.6.3 3.5.9l-1 1.3c-.7-.4-1.5-.7-2.5-.7-.9 0-1.4.1-1.4.4 0 .1.1.2.4.3 0 .4.4.4 1 .5zm12.3-2.2v1.3l-4 3.4h4.2v1.6H976v-1.3l4-3.4h-3.9v-1.6h7zm12 0v1.3l-4 3.4h4.2v1.6H988v-1.3l4-3.4h-3.9v-1.6h7zm7.8 6.3l-.5-1.1h-3.1l-.5 1.1h-2.3l3.2-6.3h2.4l3.2 6.3h-2.4zm-3-2.5h1.8l-.9-1.9-.9 1.9zm14.5 2.5h-2.6l-1.8-2.5-1.2 1.1v1.4h-2.2v-6.3h2.2v2.7l2.7-2.7h2.7l-2.7 2.5 2.9 3.8zm9.1 0h-2.5l-1.5-1.9h-1.5v1.9h-2.2v-6.3h4.5c.9 0 1.6.2 2.2.6s.8.9.8 1.7c0 .5-.1.9-.4 1.3-.3.3-.7.6-1.2.8l1.8 1.9zm-5.5-3.3h2.1c.6 0 1-.2 1-.7 0-.5-.3-.7-1-.7h-2.1v1.4zm9.4 1.7h4.8v1.6h-6.9v-6.3h6.8v1.6h-4.7v.8h3.8v1.5h-3.8v.8zm10.2-2.5c.6 0 1.1.1 1.5.2s.8.2 1.1.3c.3.2.6.4.8.6.2.3.3.6.3.9 0 .7-.3 1.2-.9 1.6-.6.4-1.5.6-2.6.6-1.7 0-3-.4-4.1-1.2l1.1-1.3c.8.6 1.8.9 3 .9.9 0 1.3-.2 1.3-.5 0-.2-.1-.3-.3-.3-.2-.1-.6-.1-1.2-.2-.5 0-1-.1-1.4-.2s-.8-.2-1.1-.4c-.4-.2-.6-.4-.8-.6-.2-.3-.3-.6-.3-.9 0-.7.3-1.2 1-1.6.7-.4 1.5-.6 2.6-.6 1.4 0 2.6.3 3.5.9l-1 1.3c-.7-.4-1.5-.7-2.5-.7-.9 0-1.4.1-1.4.4 0 .1.1.2.4.3 0 .4.4.4 1 .5zm5.1-.8v-1.4h3.3v7.4h-3.3v-1.4h1.6v-4.6h-1.6z"/></g><g class="st2"><path class="st6" d="M983 8595.1h-1.6v4.6h1.6v1.4h-3.3v-7.4h3.3v1.4zm4 4.9h-2.2v-6.3h2.2v6.3zm8.8-6.3h2.3v6.3H996v-3.7l-2.3 2.8h-.1l-2.3-2.8v3.7h-2.1v-6.3h2.4l2.1 2.7 2.1-2.7zm6.8 6.3h-2.2v-6.3h2.2v6.3zm9.2 1.3l.3.4c-.3.4-.7.6-1.4.6-.4 0-.8-.1-1.1-.3s-.4-.5-.4-.8c0-.3.1-.5.3-.7s.4-.4.8-.5h-5.6v-6.3h6.8v1.6h-4.7v.8h3.8v1.5h-3.8v.9h4.8v1.6c-.3.1-.5.3-.7.4-.2.2-.3.4-.3.6 0 .1.1.3.2.4s.2.1.4.1c.3-.1.5-.1.6-.3zm12.6-1.3h-2.6l-1.8-2.5-1.2 1.1v1.4h-2.2v-6.3h2.2v2.7l2.7-2.7h2.7l-2.7 2.5 2.9 3.8zm3.7-1.7h4v1.7h-6.2v-6.3h2.2v4.6zm7.9 1.7h-2.2v-6.3h2.2v6.3zm4.3-1.6h4.8v1.6h-6.9v-6.3h6.8v1.6h-4.7v.8h3.8v1.5h-3.8v.8zm12.3-4.7h2.1v6.3h-1.9l-3.7-3.8v3.8h-2.1v-6.3h2.3l3.2 3.4v-3.4zm10.9 0v1.7h-2.5v4.6h-2.2v-4.6h-2.5v-1.7h7.2zm6.5 6.3l-.5-1.1h-3.1l-.5 1.1h-2.3l3.2-6.3h2.4l3.2 6.3h-2.4zm-3-2.5h1.8l-.9-1.9-.9 1.9zm6.5-2.4v-1.4h3.3v7.4h-3.3v-1.4h1.6v-4.6h-1.6z"/></g><g class="st2"><path class="st6" d="M942 8752.1h-1.6v4.6h1.6v1.4h-3.3v-7.4h3.3v1.4zm10.5-1.4h2.2l-2.3 6.3h-2.2l-1.3-4-1.3 4h-2.2l-2.3-6.3h2.2l1.2 4 1.3-4h2l1.3 4 1.4-4zm3 0h2.4l1.6 2.5 1.6-2.5h2.4l-2.9 4.2v2.1h-2.2v-2.1l-2.9-4.2zm16.1 0h2.3v6.3h-2.2v-3.7l-2.3 2.8h-.1l-2.3-2.8v3.7h-2v-6.3h2.4l2.1 2.7 2.1-2.7zm6.7 6.3h-2.2v-6.3h2.2v6.3zm4.3-1.6h4.8v1.6h-6.9v-6.3h6.8v1.6h-4.7v.8h3.8v1.5h-3.8v.8zm12.3-4.7h2.1v6.3h-1.9l-3.7-3.8v3.8h-2.1v-6.3h2.3l3.2 3.4v-3.4zm.8-2.3l-2.2 1.6H992l1.2-1.6h2.5zm13.5 2.3v1.3l-4 3.4h4.2v1.6h-7.3v-1.3l4-3.4h-3.9v-1.6h7zm7.7 6.3l-.5-1.1h-3.1l-.5 1.1h-2.3l3.2-6.3h2.4l3.2 6.3h-2.4zm-3-2.5h1.8l-.9-1.9-.9 1.9zm9.6.8h4v1.7h-6.2v-2.1l-1 .4v-1.3l1-.4v-2.9h2.2v1.9l1.8-.8v1.3l-1.8.8v1.4zm13.9 3l.3.4c-.3.4-.7.6-1.4.6-.4 0-.8-.1-1.1-.3s-.4-.5-.4-.8c0-.3.1-.5.3-.7s.4-.4.8-.5h-.9l-.5-1.1h-3.1l-.5 1.1h-2.3l3.2-6.3h2.4l3.2 6.3c-.3.1-.5.3-.7.4-.2.2-.3.4-.3.6 0 .1.1.3.2.4s.2.1.4.1c.1 0 .3 0 .4-.2zm-5.5-3.8h1.8l-.9-1.9-.9 1.9zm10.2 1c.8 0 1.4-.3 1.8-.9l1.8 1c-.3.5-.8.9-1.4 1.2-.6.3-1.4.5-2.2.5-1.2 0-2.2-.3-2.9-.9-.7-.6-1.1-1.4-1.1-2.5s.4-1.9 1.1-2.5 1.7-.9 3-.9c.8 0 1.5.2 2.2.5.6.3 1.1.7 1.4 1.2l-1.8.9c-.4-.6-1-.9-1.7-.9-.6 0-1 .1-1.4.4-.3.3-.5.7-.5 1.2s.2.9.5 1.2c.1.3.6.5 1.2.5zm12.1-4.8v1.3l-4 3.4h4.2v1.6h-7.3v-1.3l4-3.4h-3.9v-1.6h7zm7.6 0h2.1v6.3h-1.9l-3.7-3.8v3.8h-2.1v-6.3h2.3l3.2 3.4v-3.4zm6.5 6.3h-2.2v-6.3h2.2v6.3zm9.9 0h-2.6l-1.8-2.5-1.2 1.1v1.4h-2.2v-6.3h2.2v2.7l2.7-2.7h2.7l-2.7 2.5 2.9 3.8zm3.6 0h-2.2v-6.3h2.2v6.3zm1.9-4.9v-1.4h3.3v7.4h-3.3v-1.4h1.6v-4.6h-1.6z"/></g><g id="Group_1531" transform="translate(930.064 8515.385)"><g id="Group_1528" transform="translate(32.974)"><g id="Group_1527"><path id="Path_3068" d="M-9-8c-1.6 0-3 1.3-3 3s1.3 3 3 3 3-1.3 3-3c-.1-1.7-1.4-3-3-3z"/></g></g><g id="Group_1530" transform="translate(31 6.581)"><g id="Group_1529"><path id="Path_3069" d="M-3.4-6.7c-.8-.8-1.9-1.3-3-1.3h-1.3c-1.1 0-2.2.5-3 1.3-.8.8-1.3 1.9-1.3 3 0 .2.1.3.3.3h9.2c.2 0 .3-.1.3-.3.1-1.1-.4-2.2-1.2-3z"/></g></g></g></g></svg>