<svg version="1.1" id="Layer_1" xmlns="http://www.w3.org/2000/svg" x="0" y="0" viewBox="0 0 397 357" xml:space="preserve"><style>.st0{fill:#fff}.st1{fill:#fcf114}.st2{fill:none;stroke:#e4edef}.st3{enable-background:new}.st4{fill:#1a1a1a}</style><g id="Group_1582" transform="translate(-901 -8064)"><g transform="translate(901 8064)"><path id="Rectangle_4181-2" class="st0" d="M12 8h373v333H12z"/></g><path id="Rectangle_4182" class="st1" d="M972.5 8114h118c11.9 0 21.5 9.6 21.5 21.5s-9.6 21.5-21.5 21.5h-118c-11.9 0-21.5-9.6-21.5-21.5s9.6-21.5 21.5-21.5z"/><path id="Rectangle_4183" class="st1" d="M972.5 8328h118c11.9 0 21.5 9.6 21.5 21.5s-9.6 21.5-21.5 21.5h-118c-11.9 0-21.5-9.6-21.5-21.5s9.6-21.5 21.5-21.5z"/><path id="Rectangle_4187" class="st1" d="M1123.5 8221h107c11.9 0 21.5 9.6 21.5 21.5s-9.6 21.5-21.5 21.5h-107c-11.9 0-21.5-9.6-21.5-21.5s9.6-21.5 21.5-21.5z"/><circle id="Ellipse_292" class="st0" cx="972" cy="8136" r="15"/><circle id="Ellipse_293" class="st0" cx="972" cy="8350" r="15"/><circle id="Ellipse_294" class="st0" cx="1124" cy="8243" r="15"/><path id="Line_251" class="st2" d="M972.5 8171.5v72"/><path id="Line_258" class="st2" d="M1182.5 8278.5v72"/><path id="Line_257" class="st2" d="M972.5 8243.5h116"/><path id="Line_259" class="st2" d="M1124.5 8350.5h58"/><g class="st3"><path class="st4" d="M970.7 8140v-5.5c-.6.4-1.4.6-2.5.8v-2.2c.6-.1 1.1-.3 1.7-.5.6-.3 1.1-.6 1.5-.9h2.2v8.4h-2.9z"/></g><g class="st3"><path class="st4" d="M969 8351.1c.8.7 1.7 1.1 2.7 1.1.3 0 .6 0 .9-.1.3 0 .5-.1.7-.3s.3-.3.3-.5 0-.3-.1-.4c-.1-.1-.2-.2-.4-.2s-.4-.1-.6-.1h-2.1v-1.8h1.4c1.1 0 1.6-.2 1.6-.7 0-.5-.5-.7-1.6-.7-1 0-1.9.4-2.6 1.1l-1.8-1.3c.5-.6 1.1-1 1.9-1.4.8-.3 1.7-.5 2.7-.5.8 0 1.5.1 2.2.2.6.2 1.2.4 1.6.8.4.4.7.8.7 1.4 0 .5-.2.9-.5 1.3s-.8.6-1.4.7c.7.1 1.2.3 1.6.7.4.3.6.8.6 1.3 0 .6-.2 1-.6 1.4s-1 .7-1.7.9c-.7.2-1.5.3-2.4.3-1 0-1.9-.2-2.7-.5-.8-.3-1.5-.8-2-1.4l1.6-1.3z"/></g><g class="st3"><path class="st4" d="M1119.5 8240.1c.5-.5 1.1-1 2-1.3s1.7-.5 2.7-.5c.5 0 1 .1 1.5.2s.9.3 1.4.5.8.5 1 .8c.2.3.4.7.4 1.2 0 1.3-1 2.2-3.1 2.8-1.4.4-2.3.8-2.6 1.1h5.8v2.1h-9.2v-1.2c.1-.8.5-1.6 1.2-2.3s1.7-1.2 2.9-1.5c.9-.3 1.4-.5 1.6-.6.2-.1.3-.2.3-.4s-.1-.4-.4-.5c-.3-.1-.6-.2-1-.2-1.1 0-2.1.4-3 1.3l-1.5-1.5z"/></g><g class="st3"><path class="st4" d="M1002.1 8138.2h5.3v1.8h-7.7v-7h7.6v1.8h-5.2v.9h4.2v1.6h-4.2v.9zm13.8-5.2v1.8h-2.8v5.2h-2.4v-5.2h-2.8v-1.8h8zm6.2 7l-.6-1.2h-3.5l-.6 1.2h-2.5l3.6-7h2.6l3.5 7h-2.5zm-3.4-2.8h2l-1-2.2-1 2.2zm11.5-4.2c1 0 1.9.2 2.5.6.6.4.9 1.1.9 1.9 0 .8-.3 1.5-.9 1.9-.6.4-1.4.6-2.5.6h-2.5v2h-2.4v-7h4.9zm-.2 3.4c.7 0 1.1-.3 1.1-.8 0-.6-.4-.8-1.1-.8h-2.3v1.7h2.3z"/></g><g class="st3"><path class="st4" d="M1002.1 8352.2h5.3v1.8h-7.7v-7h7.6v1.8h-5.2v.9h4.2v1.6h-4.2v.9zm13.8-5.2v1.8h-2.8v5.2h-2.4v-5.2h-2.8v-1.8h8zm6.2 7l-.6-1.2h-3.5l-.6 1.2h-2.5l3.6-7h2.6l3.5 7h-2.5zm-3.4-2.8h2l-1-2.2-1 2.2zm11.5-4.2c1 0 1.9.2 2.5.6.6.4.9 1.1.9 1.9 0 .8-.3 1.5-.9 1.9-.6.4-1.4.6-2.5.6h-2.5v2h-2.4v-7h4.9zm-.2 3.4c.7 0 1.1-.3 1.1-.8 0-.6-.4-.8-1.1-.8h-2.3v1.7h2.3z"/></g><g class="st3"><path class="st4" d="M1155.1 8245.2h5.3v1.8h-7.7v-7h7.6v1.8h-5.2v.9h4.2v1.6h-4.2v.9zm13.8-5.2v1.8h-2.8v5.2h-2.4v-5.2h-2.8v-1.8h8zm6.2 7l-.6-1.2h-3.5l-.6 1.2h-2.5l3.5-7h2.7l3.5 7h-2.5zm-3.4-2.8h2l-1-2.2-1 2.2zm11.5-4.2c1 0 1.8.2 2.4.6.6.4.9 1.1.9 1.9 0 .8-.3 1.5-.9 1.9-.6.4-1.4.6-2.4.6h-2.5v2h-2.4v-7h4.9zm-.2 3.4c.7 0 1.1-.3 1.1-.8 0-.6-.4-.8-1.1-.8h-2.3v1.7h2.3z"/></g></g></svg>